<?xml version="1.0" encoding="UTF-8" standalone="no"?>
<!DOCTYPE svg PUBLIC "-//W3C//DTD SVG 1.1//EN"
 "http://www.w3.org/Graphics/SVG/1.1/DTD/svg11.dtd">
<!-- Generated by graphviz version 2.38.0 (20140413.2041)
 -->
<!-- Title: G Pages: 1 -->
<svg width="414pt" height="546pt"
 viewBox="0.00 0.00 413.50 546.00" xmlns="http://www.w3.org/2000/svg" xmlns:xlink="http://www.w3.org/1999/xlink">
<g id="graph0" class="graph" transform="scale(1 1) rotate(0) translate(4 542)">
<title>G</title>
<polygon fill="white" stroke="none" points="-4,4 -4,-542 409.5,-542 409.5,4 -4,4"/>
<text text-anchor="middle" x="202.75" y="-6.6" font-family="Bitstream Vera Sans" font-size="8.00">generated by sadisplay v0.4.8</text>
<!-- data_provider -->
<g id="node1" class="node"><title>data_provider</title>
<polygon fill="lightyellow" stroke="none" points="241,-156 241,-225 389,-225 389,-156 241,-156"/>
<polygon fill="palegoldenrod" stroke="none" points="241,-207.5 241,-224.5 389,-224.5 389,-207.5 241,-207.5"/>
<text text-anchor="start" x="287.5" y="-214.1" font-family="Helvetica Bold" font-size="8.00">data_provider</text>
<text text-anchor="start" x="243" y="-199.1" font-family="Bitstream Vera Sans" font-size="8.00">★ id</text>
<text text-anchor="start" x="328" y="-199.1" font-family="Bitstream Vera Sans" font-size="8.00">INTEGER</text>
<text text-anchor="start" x="243" y="-186.1" font-family="Bitstream Vera Sans" font-size="8.00">☆ provider_type_id</text>
<text text-anchor="start" x="328" y="-186.1" font-family="Bitstream Vera Sans" font-size="8.00">INTEGER</text>
<text text-anchor="start" x="243" y="-173.1" font-family="Bitstream Vera Sans" font-size="8.00">⚪ name</text>
<text text-anchor="start" x="328" y="-173.1" font-family="Bitstream Vera Sans" font-size="8.00">VARCHAR(100)</text>
<text text-anchor="start" x="243" y="-160.1" font-family="Bitstream Vera Sans" font-size="8.00">⚪ properties</text>
<text text-anchor="start" x="328" y="-160.1" font-family="Bitstream Vera Sans" font-size="8.00">JSONB</text>
</g>
<!-- data_provider_type -->
<g id="node2" class="node"><title>data_provider_type</title>
<polygon fill="lightyellow" stroke="none" points="264.5,-21 264.5,-64 365.5,-64 365.5,-21 264.5,-21"/>
<polygon fill="palegoldenrod" stroke="none" points="265,-46.5 265,-63.5 366,-63.5 366,-46.5 265,-46.5"/>
<text text-anchor="start" x="277" y="-53.1" font-family="Helvetica Bold" font-size="8.00">data_provider_type</text>
<text text-anchor="start" x="267" y="-38.1" font-family="Bitstream Vera Sans" font-size="8.00">★ id</text>
<text text-anchor="start" x="305" y="-38.1" font-family="Bitstream Vera Sans" font-size="8.00">INTEGER</text>
<text text-anchor="start" x="267" y="-25.1" font-family="Bitstream Vera Sans" font-size="8.00">⚪ name</text>
<text text-anchor="start" x="305" y="-25.1" font-family="Bitstream Vera Sans" font-size="8.00">VARCHAR(100)</text>
</g>
<!-- data_provider&#45;&gt;data_provider_type -->
<g id="edge1" class="edge"><title>data_provider&#45;&gt;data_provider_type</title>
<path fill="none" stroke="black" d="M315,-151.901C315,-129.865 315,-102.151 315,-80.261"/>
<polygon fill="none" stroke="black" points="315,-80.1327 311,-74.1328 315,-68.1327 319,-74.1327 315,-80.1327"/>
<text text-anchor="middle" x="350" y="-88.6" font-family="Bitstream Vera Sans" font-size="8.00">provider_type_id</text>
</g>
<!-- occurrence -->
<g id="node3" class="node"><title>occurrence</title>
<polygon fill="lightyellow" stroke="none" points="8,-317 8,-425 198,-425 198,-317 8,-317"/>
<polygon fill="palegoldenrod" stroke="none" points="8,-408 8,-425 198,-425 198,-408 8,-408"/>
<text text-anchor="start" x="80.5" y="-414.6" font-family="Helvetica Bold" font-size="8.00">occurrence</text>
<text text-anchor="start" x="10" y="-399.6" font-family="Bitstream Vera Sans" font-size="8.00">★ id</text>
<text text-anchor="start" x="99" y="-399.6" font-family="Bitstream Vera Sans" font-size="8.00">INTEGER</text>
<text text-anchor="start" x="10" y="-386.6" font-family="Bitstream Vera Sans" font-size="8.00">☆ provider_id</text>
<text text-anchor="start" x="99" y="-386.6" font-family="Bitstream Vera Sans" font-size="8.00">INTEGER</text>
<text text-anchor="start" x="10" y="-373.6" font-family="Bitstream Vera Sans" font-size="8.00">☆ taxon_id</text>
<text text-anchor="start" x="99" y="-373.6" font-family="Bitstream Vera Sans" font-size="8.00">INTEGER</text>
<text text-anchor="start" x="10" y="-360.6" font-family="Bitstream Vera Sans" font-size="8.00">⚪ location</text>
<text text-anchor="start" x="99" y="-360.6" font-family="Bitstream Vera Sans" font-size="8.00">geometry(POINT,4326)</text>
<text text-anchor="start" x="10" y="-347.6" font-family="Bitstream Vera Sans" font-size="8.00">⚪ properties</text>
<text text-anchor="start" x="99" y="-347.6" font-family="Bitstream Vera Sans" font-size="8.00">JSONB</text>
<text text-anchor="start" x="10" y="-334.6" font-family="Bitstream Vera Sans" font-size="8.00">⚪ provider_pk</text>
<text text-anchor="start" x="99" y="-334.6" font-family="Bitstream Vera Sans" font-size="8.00">INTEGER</text>
<text text-anchor="start" x="10" y="-321.6" font-family="Bitstream Vera Sans" font-size="8.00">⚪ provider_taxon_id</text>
<text text-anchor="start" x="99" y="-321.6" font-family="Bitstream Vera Sans" font-size="8.00">INTEGER</text>
</g>
<!-- occurrence&#45;&gt;data_provider -->
<g id="edge2" class="edge"><title>occurrence&#45;&gt;data_provider</title>
<path fill="none" stroke="black" d="M170.953,-312.785C199.988,-288.338 233.413,-260.194 260.752,-237.175"/>
<polygon fill="none" stroke="black" points="260.972,-236.99 262.986,-230.066 270.152,-229.261 268.138,-236.186 260.972,-236.99"/>
<text text-anchor="middle" x="227" y="-288.6" font-family="Bitstream Vera Sans" font-size="8.00">provider_id</text>
</g>
<!-- taxon -->
<g id="node6" class="node"><title>taxon</title>
<polygon fill="lightyellow" stroke="none" points="23,-117 23,-264 149,-264 149,-117 23,-117"/>
<polygon fill="palegoldenrod" stroke="none" points="23,-246.5 23,-263.5 149,-263.5 149,-246.5 23,-246.5"/>
<text text-anchor="start" x="74.5" y="-253.1" font-family="Helvetica Bold" font-size="8.00">taxon</text>
<text text-anchor="start" x="25" y="-238.1" font-family="Bitstream Vera Sans" font-size="8.00">★ id</text>
<text text-anchor="start" x="93" y="-238.1" font-family="Bitstream Vera Sans" font-size="8.00">INTEGER</text>
<text text-anchor="start" x="25" y="-225.1" font-family="Bitstream Vera Sans" font-size="8.00">☆ parent_id</text>
<text text-anchor="start" x="93" y="-225.1" font-family="Bitstream Vera Sans" font-size="8.00">INTEGER</text>
<text text-anchor="start" x="25" y="-212.1" font-family="Bitstream Vera Sans" font-size="8.00">⚪ full_name</text>
<text text-anchor="start" x="93" y="-212.1" font-family="Bitstream Vera Sans" font-size="8.00">TEXT</text>
<text text-anchor="start" x="25" y="-199.1" font-family="Bitstream Vera Sans" font-size="8.00">⚪ mptt_depth</text>
<text text-anchor="start" x="93" y="-199.1" font-family="Bitstream Vera Sans" font-size="8.00">INTEGER</text>
<text text-anchor="start" x="25" y="-186.1" font-family="Bitstream Vera Sans" font-size="8.00">⚪ mptt_left</text>
<text text-anchor="start" x="93" y="-186.1" font-family="Bitstream Vera Sans" font-size="8.00">INTEGER</text>
<text text-anchor="start" x="25" y="-173.1" font-family="Bitstream Vera Sans" font-size="8.00">⚪ mptt_right</text>
<text text-anchor="start" x="93" y="-173.1" font-family="Bitstream Vera Sans" font-size="8.00">INTEGER</text>
<text text-anchor="start" x="25" y="-160.1" font-family="Bitstream Vera Sans" font-size="8.00">⚪ mptt_tree_id</text>
<text text-anchor="start" x="93" y="-160.1" font-family="Bitstream Vera Sans" font-size="8.00">INTEGER</text>
<text text-anchor="start" x="25" y="-147.1" font-family="Bitstream Vera Sans" font-size="8.00">⚪ rank</text>
<text text-anchor="start" x="93" y="-147.1" font-family="Bitstream Vera Sans" font-size="8.00">VARCHAR(12)</text>
<text text-anchor="start" x="25" y="-134.1" font-family="Bitstream Vera Sans" font-size="8.00">⚪ rank_name</text>
<text text-anchor="start" x="93" y="-134.1" font-family="Bitstream Vera Sans" font-size="8.00">TEXT</text>
<text text-anchor="start" x="25" y="-121.1" font-family="Bitstream Vera Sans" font-size="8.00">⚪ synonyms</text>
<text text-anchor="start" x="93" y="-121.1" font-family="Bitstream Vera Sans" font-size="8.00">JSONB</text>
</g>
<!-- occurrence&#45;&gt;taxon -->
<g id="edge3" class="edge"><title>occurrence&#45;&gt;taxon</title>
<path fill="none" stroke="black" d="M97.5275,-312.539C96.5367,-302.135 95.4828,-291.069 94.4303,-280.018"/>
<polygon fill="none" stroke="black" points="94.4296,-280.01 89.8787,-274.416 93.2918,-268.064 97.8427,-273.658 94.4296,-280.01"/>
<text text-anchor="middle" x="114" y="-288.6" font-family="Bitstream Vera Sans" font-size="8.00">taxon_id</text>
</g>
<!-- plot -->
<g id="node4" class="node"><title>plot</title>
<polygon fill="lightyellow" stroke="none" points="232.5,-323.5 232.5,-418.5 397.5,-418.5 397.5,-323.5 232.5,-323.5"/>
<polygon fill="palegoldenrod" stroke="none" points="233,-401 233,-418 398,-418 398,-401 233,-401"/>
<text text-anchor="start" x="307.5" y="-407.6" font-family="Helvetica Bold" font-size="8.00">plot</text>
<text text-anchor="start" x="235" y="-392.6" font-family="Bitstream Vera Sans" font-size="8.00">★ id</text>
<text text-anchor="start" x="299" y="-392.6" font-family="Bitstream Vera Sans" font-size="8.00">INTEGER</text>
<text text-anchor="start" x="235" y="-379.6" font-family="Bitstream Vera Sans" font-size="8.00">☆ provider_id</text>
<text text-anchor="start" x="299" y="-379.6" font-family="Bitstream Vera Sans" font-size="8.00">INTEGER</text>
<text text-anchor="start" x="235" y="-366.6" font-family="Bitstream Vera Sans" font-size="8.00">⚪ location</text>
<text text-anchor="start" x="299" y="-366.6" font-family="Bitstream Vera Sans" font-size="8.00">geometry(POINT,4326)</text>
<text text-anchor="start" x="235" y="-353.6" font-family="Bitstream Vera Sans" font-size="8.00">⚪ name</text>
<text text-anchor="start" x="299" y="-353.6" font-family="Bitstream Vera Sans" font-size="8.00">VARCHAR(100)</text>
<text text-anchor="start" x="235" y="-340.6" font-family="Bitstream Vera Sans" font-size="8.00">⚪ properties</text>
<text text-anchor="start" x="299" y="-340.6" font-family="Bitstream Vera Sans" font-size="8.00">JSONB</text>
<text text-anchor="start" x="235" y="-327.6" font-family="Bitstream Vera Sans" font-size="8.00">⚪ provider_pk</text>
<text text-anchor="start" x="299" y="-327.6" font-family="Bitstream Vera Sans" font-size="8.00">INTEGER</text>
</g>
<!-- plot&#45;&gt;data_provider -->
<g id="edge4" class="edge"><title>plot&#45;&gt;data_provider</title>
<path fill="none" stroke="black" d="M315,-319.327C315,-294.926 315,-265.762 315,-241.456"/>
<polygon fill="none" stroke="black" points="315,-241.239 311,-235.239 315,-229.239 319,-235.239 315,-241.239"/>
<text text-anchor="middle" x="339" y="-288.6" font-family="Bitstream Vera Sans" font-size="8.00">provider_id</text>
</g>
<!-- plot_occurrence -->
<g id="node5" class="node"><title>plot_occurrence</title>
<polygon fill="lightyellow" stroke="none" points="143,-478 143,-534 305,-534 305,-478 143,-478"/>
<polygon fill="palegoldenrod" stroke="none" points="143,-517 143,-534 305,-534 305,-517 143,-517"/>
<text text-anchor="start" x="191.5" y="-523.6" font-family="Helvetica Bold" font-size="8.00">plot_occurrence</text>
<text text-anchor="start" x="145" y="-508.6" font-family="Bitstream Vera Sans" font-size="8.00">★ occurrence_id</text>
<text text-anchor="start" x="249" y="-508.6" font-family="Bitstream Vera Sans" font-size="8.00">INTEGER</text>
<text text-anchor="start" x="145" y="-495.6" font-family="Bitstream Vera Sans" font-size="8.00">★ plot_id</text>
<text text-anchor="start" x="249" y="-495.6" font-family="Bitstream Vera Sans" font-size="8.00">INTEGER</text>
<text text-anchor="start" x="145" y="-482.6" font-family="Bitstream Vera Sans" font-size="8.00">⚪ occurrence_identifier</text>
<text text-anchor="start" x="249" y="-482.6" font-family="Bitstream Vera Sans" font-size="8.00">VARCHAR(50)</text>
</g>
<!-- plot_occurrence&#45;&gt;occurrence -->
<g id="edge6" class="edge"><title>plot_occurrence&#45;&gt;occurrence</title>
<path fill="none" stroke="black" d="M195.631,-473.817C185.851,-463.067 174.492,-450.582 163.15,-438.115"/>
<polygon fill="none" stroke="black" points="162.992,-437.942 155.996,-436.196 154.917,-429.066 161.913,-430.812 162.992,-437.942"/>
<text text-anchor="middle" x="208" y="-449.6" font-family="Bitstream Vera Sans" font-size="8.00">occurrence_id</text>
</g>
<!-- plot_occurrence&#45;&gt;plot -->
<g id="edge5" class="edge"><title>plot_occurrence&#45;&gt;plot</title>
<path fill="none" stroke="black" d="M245.335,-473.817C253.748,-461.523 263.712,-446.959 273.436,-432.748"/>
<polygon fill="none" stroke="black" points="273.671,-432.404 273.758,-425.193 280.447,-422.5 280.36,-429.711 273.671,-432.404"/>
<text text-anchor="middle" x="276" y="-449.6" font-family="Bitstream Vera Sans" font-size="8.00">plot_id</text>
</g>
<!-- taxon&#45;&gt;taxon -->
<g id="edge7" class="edge"><title>taxon&#45;&gt;taxon</title>
<path fill="none" stroke="black" d="M157.226,-207.509C167.829,-204.861 175,-199.191 175,-190.5 175,-185.475 172.603,-181.46 168.532,-178.456"/>
<polygon fill="none" stroke="black" points="168.213,-178.316 161.111,-179.566 157.226,-173.491 164.328,-172.241 168.213,-178.316"/>
<text text-anchor="middle" x="195" y="-188.6" font-family="Bitstream Vera Sans" font-size="8.00">parent_id</text>
</g>
</g>
</svg>
