<?xml version="1.0" encoding="UTF-8" standalone="no"?>
<!DOCTYPE svg PUBLIC "-//W3C//DTD SVG 1.1//EN"
 "http://www.w3.org/Graphics/SVG/1.1/DTD/svg11.dtd">
<!-- Generated by graphviz version 2.38.0 (20140413.2041)
 -->
<!-- Title: G Pages: 1 -->
<svg width="728pt" height="689pt"
 viewBox="0.00 0.00 727.50 689.00" xmlns="http://www.w3.org/2000/svg" xmlns:xlink="http://www.w3.org/1999/xlink">
<g id="graph0" class="graph" transform="scale(1 1) rotate(0) translate(4 685)">
<title>G</title>
<polygon fill="white" stroke="none" points="-4,4 -4,-685 723.5,-685 723.5,4 -4,4"/>
<text text-anchor="middle" x="359.75" y="-6.6" font-family="Bitstream Vera Sans" font-size="8.00">generated by sadisplay v0.4.8</text>
<!-- data_provider -->
<g id="node1" class="node"><title>data_provider</title>
<polygon fill="lightyellow" stroke="none" points="333.5,-169 333.5,-277 697.5,-277 697.5,-169 333.5,-169"/>
<polygon fill="palegoldenrod" stroke="none" points="333.5,-260 333.5,-277 697.5,-277 697.5,-260 333.5,-260"/>
<text text-anchor="start" x="488" y="-266.6" font-family="Helvetica Bold" font-size="8.00">data_provider</text>
<text text-anchor="start" x="335.5" y="-251.6" font-family="Bitstream Vera Sans" font-size="8.00">★ id</text>
<text text-anchor="start" x="594.5" y="-251.6" font-family="Bitstream Vera Sans" font-size="8.00">INTEGER</text>
<text text-anchor="start" x="335.5" y="-238.6" font-family="Bitstream Vera Sans" font-size="8.00">☆ provider_type_id</text>
<text text-anchor="start" x="594.5" y="-238.6" font-family="Bitstream Vera Sans" font-size="8.00">INTEGER</text>
<text text-anchor="start" x="335.5" y="-225.6" font-family="Bitstream Vera Sans" font-size="8.00">☆ synonym_key_id</text>
<text text-anchor="start" x="594.5" y="-225.6" font-family="Bitstream Vera Sans" font-size="8.00">INTEGER</text>
<text text-anchor="start" x="335.5" y="-212.6" font-family="Bitstream Vera Sans" font-size="8.00">⚪ name</text>
<text text-anchor="start" x="594.5" y="-212.6" font-family="Bitstream Vera Sans" font-size="8.00">VARCHAR(100)</text>
<text text-anchor="start" x="335.5" y="-199.6" font-family="Bitstream Vera Sans" font-size="8.00">⚪ properties</text>
<text text-anchor="start" x="594.5" y="-199.6" font-family="Bitstream Vera Sans" font-size="8.00">JSONB</text>
<polygon fill="palegoldenrod" stroke="none" points="333.5,-182 333.5,-195 592.5,-195 592.5,-182 333.5,-182"/>
<text text-anchor="start" x="335.5" y="-186.6" font-family="Bitstream Vera Sans" font-size="8.00">» ix_data_provider_niamoto_data_provider_provider_type_id</text>
<polygon fill="palegoldenrod" stroke="none" points="592.5,-182 592.5,-195 697.5,-195 697.5,-182 592.5,-182"/>
<text text-anchor="start" x="594.5" y="-186.6" font-family="Bitstream Vera Sans" font-size="8.00">INDEX(provider_type_id)</text>
<polygon fill="palegoldenrod" stroke="none" points="333.5,-169 333.5,-182 592.5,-182 592.5,-169 333.5,-169"/>
<text text-anchor="start" x="335.5" y="-173.6" font-family="Bitstream Vera Sans" font-size="8.00">» ix_data_provider_niamoto_data_provider_synonym_key_id</text>
<polygon fill="palegoldenrod" stroke="none" points="592.5,-169 592.5,-182 697.5,-182 697.5,-169 592.5,-169"/>
<text text-anchor="start" x="594.5" y="-173.6" font-family="Bitstream Vera Sans" font-size="8.00">INDEX(synonym_key_id)</text>
</g>
<!-- data_provider_type -->
<g id="node2" class="node"><title>data_provider_type</title>
<polygon fill="lightyellow" stroke="none" points="390,-34 390,-77 491,-77 491,-34 390,-34"/>
<polygon fill="palegoldenrod" stroke="none" points="390.5,-59.5 390.5,-76.5 491.5,-76.5 491.5,-59.5 390.5,-59.5"/>
<text text-anchor="start" x="402.5" y="-66.1" font-family="Helvetica Bold" font-size="8.00">data_provider_type</text>
<text text-anchor="start" x="392.5" y="-51.1" font-family="Bitstream Vera Sans" font-size="8.00">★ id</text>
<text text-anchor="start" x="430.5" y="-51.1" font-family="Bitstream Vera Sans" font-size="8.00">INTEGER</text>
<text text-anchor="start" x="392.5" y="-38.1" font-family="Bitstream Vera Sans" font-size="8.00">⚪ name</text>
<text text-anchor="start" x="430.5" y="-38.1" font-family="Bitstream Vera Sans" font-size="8.00">VARCHAR(100)</text>
</g>
<!-- data_provider&#45;&gt;data_provider_type -->
<g id="edge1" class="edge"><title>data_provider&#45;&gt;data_provider_type</title>
<path fill="none" stroke="black" d="M489.479,-164.581C478.556,-140.476 466.194,-113.198 456.623,-92.077"/>
<polygon fill="none" stroke="black" points="456.572,-91.9657 450.452,-88.1517 451.619,-81.0356 457.739,-84.8495 456.572,-91.9657"/>
<text text-anchor="middle" x="504.5" y="-114.6" font-family="Bitstream Vera Sans" font-size="8.00">provider_type_id</text>
</g>
<!-- synonym_key_registry -->
<g id="node7" class="node"><title>synonym_key_registry</title>
<polygon fill="lightyellow" stroke="none" points="525.5,-21 525.5,-90 655.5,-90 655.5,-21 525.5,-21"/>
<polygon fill="palegoldenrod" stroke="none" points="525.5,-72.5 525.5,-89.5 655.5,-89.5 655.5,-72.5 525.5,-72.5"/>
<text text-anchor="start" x="546" y="-79.1" font-family="Helvetica Bold" font-size="8.00">synonym_key_registry</text>
<text text-anchor="start" x="527.5" y="-64.1" font-family="Bitstream Vera Sans" font-size="8.00">★ id</text>
<text text-anchor="start" x="594.5" y="-64.1" font-family="Bitstream Vera Sans" font-size="8.00">INTEGER</text>
<text text-anchor="start" x="527.5" y="-51.1" font-family="Bitstream Vera Sans" font-size="8.00">⚪ date_create</text>
<text text-anchor="start" x="594.5" y="-51.1" font-family="Bitstream Vera Sans" font-size="8.00">DATETIME</text>
<text text-anchor="start" x="527.5" y="-38.1" font-family="Bitstream Vera Sans" font-size="8.00">⚪ date_update</text>
<text text-anchor="start" x="594.5" y="-38.1" font-family="Bitstream Vera Sans" font-size="8.00">DATETIME</text>
<text text-anchor="start" x="527.5" y="-25.1" font-family="Bitstream Vera Sans" font-size="8.00">⚪ name</text>
<text text-anchor="start" x="594.5" y="-25.1" font-family="Bitstream Vera Sans" font-size="8.00">VARCHAR(100)</text>
</g>
<!-- data_provider&#45;&gt;synonym_key_registry -->
<g id="edge2" class="edge"><title>data_provider&#45;&gt;synonym_key_registry</title>
<path fill="none" stroke="black" d="M541.521,-164.581C550.28,-145.252 559.964,-123.883 568.392,-105.284"/>
<polygon fill="none" stroke="black" points="568.505,-105.035 567.339,-97.9186 573.459,-94.1046 574.625,-101.221 568.505,-105.035"/>
<text text-anchor="middle" x="599.5" y="-114.6" font-family="Bitstream Vera Sans" font-size="8.00">synonym_key_id</text>
</g>
<!-- occurrence -->
<g id="node3" class="node"><title>occurrence</title>
<polygon fill="lightyellow" stroke="none" points="40,-356 40,-490 355,-490 355,-356 40,-356"/>
<polygon fill="palegoldenrod" stroke="none" points="40.5,-473 40.5,-490 355.5,-490 355.5,-473 40.5,-473"/>
<text text-anchor="start" x="175.5" y="-479.6" font-family="Helvetica Bold" font-size="8.00">occurrence</text>
<text text-anchor="start" x="42.5" y="-464.6" font-family="Bitstream Vera Sans" font-size="8.00">★ id</text>
<text text-anchor="start" x="256.5" y="-464.6" font-family="Bitstream Vera Sans" font-size="8.00">INTEGER</text>
<text text-anchor="start" x="42.5" y="-451.6" font-family="Bitstream Vera Sans" font-size="8.00">☆ provider_id</text>
<text text-anchor="start" x="256.5" y="-451.6" font-family="Bitstream Vera Sans" font-size="8.00">INTEGER</text>
<text text-anchor="start" x="42.5" y="-438.6" font-family="Bitstream Vera Sans" font-size="8.00">☆ taxon_id</text>
<text text-anchor="start" x="256.5" y="-438.6" font-family="Bitstream Vera Sans" font-size="8.00">INTEGER</text>
<text text-anchor="start" x="42.5" y="-425.6" font-family="Bitstream Vera Sans" font-size="8.00">⚪ location</text>
<text text-anchor="start" x="256.5" y="-425.6" font-family="Bitstream Vera Sans" font-size="8.00">geometry(POINT,4326)</text>
<text text-anchor="start" x="42.5" y="-412.6" font-family="Bitstream Vera Sans" font-size="8.00">⚪ properties</text>
<text text-anchor="start" x="256.5" y="-412.6" font-family="Bitstream Vera Sans" font-size="8.00">JSONB</text>
<text text-anchor="start" x="42.5" y="-399.6" font-family="Bitstream Vera Sans" font-size="8.00">⚪ provider_pk</text>
<text text-anchor="start" x="256.5" y="-399.6" font-family="Bitstream Vera Sans" font-size="8.00">INTEGER</text>
<text text-anchor="start" x="42.5" y="-386.6" font-family="Bitstream Vera Sans" font-size="8.00">⚪ provider_taxon_id</text>
<text text-anchor="start" x="256.5" y="-386.6" font-family="Bitstream Vera Sans" font-size="8.00">INTEGER</text>
<polygon fill="palegoldenrod" stroke="none" points="40.5,-369 40.5,-382 254.5,-382 254.5,-369 40.5,-369"/>
<text text-anchor="start" x="42.5" y="-373.6" font-family="Bitstream Vera Sans" font-size="8.00">» ix_occurrence_niamoto_occurrence_provider_id</text>
<polygon fill="palegoldenrod" stroke="none" points="254.5,-369 254.5,-382 355.5,-382 355.5,-369 254.5,-369"/>
<text text-anchor="start" x="256.5" y="-373.6" font-family="Bitstream Vera Sans" font-size="8.00">INDEX(provider_id)</text>
<polygon fill="palegoldenrod" stroke="none" points="40.5,-356 40.5,-369 254.5,-369 254.5,-356 40.5,-356"/>
<text text-anchor="start" x="42.5" y="-360.6" font-family="Bitstream Vera Sans" font-size="8.00">» ix_occurrence_niamoto_occurrence_taxon_id</text>
<polygon fill="palegoldenrod" stroke="none" points="254.5,-356 254.5,-369 355.5,-369 355.5,-356 254.5,-356"/>
<text text-anchor="start" x="256.5" y="-360.6" font-family="Bitstream Vera Sans" font-size="8.00">INDEX(taxon_id)</text>
</g>
<!-- occurrence&#45;&gt;data_provider -->
<g id="edge3" class="edge"><title>occurrence&#45;&gt;data_provider</title>
<path fill="none" stroke="black" d="M310.062,-351.914C343.677,-330.984 380.327,-308.164 413.243,-287.67"/>
<polygon fill="none" stroke="black" points="413.603,-287.445 416.582,-280.878 423.79,-281.102 420.811,-287.669 413.603,-287.445"/>
<text text-anchor="middle" x="371.5" y="-327.6" font-family="Bitstream Vera Sans" font-size="8.00">provider_id</text>
</g>
<!-- taxon -->
<g id="node8" class="node"><title>taxon</title>
<polygon fill="lightyellow" stroke="none" points="8,-143 8,-303 241,-303 241,-143 8,-143"/>
<polygon fill="palegoldenrod" stroke="none" points="8.5,-286 8.5,-303 241.5,-303 241.5,-286 8.5,-286"/>
<text text-anchor="start" x="113.5" y="-292.6" font-family="Helvetica Bold" font-size="8.00">taxon</text>
<text text-anchor="start" x="10.5" y="-277.6" font-family="Bitstream Vera Sans" font-size="8.00">★ id</text>
<text text-anchor="start" x="168.5" y="-277.6" font-family="Bitstream Vera Sans" font-size="8.00">INTEGER</text>
<text text-anchor="start" x="10.5" y="-264.6" font-family="Bitstream Vera Sans" font-size="8.00">☆ parent_id</text>
<text text-anchor="start" x="168.5" y="-264.6" font-family="Bitstream Vera Sans" font-size="8.00">INTEGER</text>
<text text-anchor="start" x="10.5" y="-251.6" font-family="Bitstream Vera Sans" font-size="8.00">⚪ full_name</text>
<text text-anchor="start" x="168.5" y="-251.6" font-family="Bitstream Vera Sans" font-size="8.00">TEXT</text>
<text text-anchor="start" x="10.5" y="-238.6" font-family="Bitstream Vera Sans" font-size="8.00">⚪ mptt_depth</text>
<text text-anchor="start" x="168.5" y="-238.6" font-family="Bitstream Vera Sans" font-size="8.00">INTEGER</text>
<text text-anchor="start" x="10.5" y="-225.6" font-family="Bitstream Vera Sans" font-size="8.00">⚪ mptt_left</text>
<text text-anchor="start" x="168.5" y="-225.6" font-family="Bitstream Vera Sans" font-size="8.00">INTEGER</text>
<text text-anchor="start" x="10.5" y="-212.6" font-family="Bitstream Vera Sans" font-size="8.00">⚪ mptt_right</text>
<text text-anchor="start" x="168.5" y="-212.6" font-family="Bitstream Vera Sans" font-size="8.00">INTEGER</text>
<text text-anchor="start" x="10.5" y="-199.6" font-family="Bitstream Vera Sans" font-size="8.00">⚪ mptt_tree_id</text>
<text text-anchor="start" x="168.5" y="-199.6" font-family="Bitstream Vera Sans" font-size="8.00">INTEGER</text>
<text text-anchor="start" x="10.5" y="-186.6" font-family="Bitstream Vera Sans" font-size="8.00">⚪ rank</text>
<text text-anchor="start" x="168.5" y="-186.6" font-family="Bitstream Vera Sans" font-size="8.00">VARCHAR(12)</text>
<text text-anchor="start" x="10.5" y="-173.6" font-family="Bitstream Vera Sans" font-size="8.00">⚪ rank_name</text>
<text text-anchor="start" x="168.5" y="-173.6" font-family="Bitstream Vera Sans" font-size="8.00">TEXT</text>
<text text-anchor="start" x="10.5" y="-160.6" font-family="Bitstream Vera Sans" font-size="8.00">⚪ synonyms</text>
<text text-anchor="start" x="168.5" y="-160.6" font-family="Bitstream Vera Sans" font-size="8.00">JSONB</text>
<polygon fill="palegoldenrod" stroke="none" points="8.5,-143 8.5,-156 166.5,-156 166.5,-143 8.5,-143"/>
<text text-anchor="start" x="10.5" y="-147.6" font-family="Bitstream Vera Sans" font-size="8.00">» ix_taxon_niamoto_taxon_parent_id</text>
<polygon fill="palegoldenrod" stroke="none" points="166.5,-143 166.5,-156 241.5,-156 241.5,-143 166.5,-143"/>
<text text-anchor="start" x="168.5" y="-147.6" font-family="Bitstream Vera Sans" font-size="8.00">INDEX(parent_id)</text>
</g>
<!-- occurrence&#45;&gt;taxon -->
<g id="edge4" class="edge"><title>occurrence&#45;&gt;taxon</title>
<path fill="none" stroke="black" d="M171.66,-351.914C167.703,-341.18 163.562,-329.95 159.448,-318.791"/>
<polygon fill="none" stroke="black" points="159.33,-318.47 153.501,-314.224 155.179,-307.211 161.007,-311.457 159.33,-318.47"/>
<text text-anchor="middle" x="181.5" y="-327.6" font-family="Bitstream Vera Sans" font-size="8.00">taxon_id</text>
</g>
<!-- plot -->
<g id="node4" class="node"><title>plot</title>
<polygon fill="lightyellow" stroke="none" points="389.5,-369 389.5,-477 641.5,-477 641.5,-369 389.5,-369"/>
<polygon fill="palegoldenrod" stroke="none" points="389.5,-460 389.5,-477 641.5,-477 641.5,-460 389.5,-460"/>
<text text-anchor="start" x="507.5" y="-466.6" font-family="Helvetica Bold" font-size="8.00">plot</text>
<text text-anchor="start" x="391.5" y="-451.6" font-family="Bitstream Vera Sans" font-size="8.00">★ id</text>
<text text-anchor="start" x="542.5" y="-451.6" font-family="Bitstream Vera Sans" font-size="8.00">INTEGER</text>
<text text-anchor="start" x="391.5" y="-438.6" font-family="Bitstream Vera Sans" font-size="8.00">☆ provider_id</text>
<text text-anchor="start" x="542.5" y="-438.6" font-family="Bitstream Vera Sans" font-size="8.00">INTEGER</text>
<text text-anchor="start" x="391.5" y="-425.6" font-family="Bitstream Vera Sans" font-size="8.00">⚪ location</text>
<text text-anchor="start" x="542.5" y="-425.6" font-family="Bitstream Vera Sans" font-size="8.00">geometry(POINT,4326)</text>
<text text-anchor="start" x="391.5" y="-412.6" font-family="Bitstream Vera Sans" font-size="8.00">⚪ name</text>
<text text-anchor="start" x="542.5" y="-412.6" font-family="Bitstream Vera Sans" font-size="8.00">VARCHAR(100)</text>
<text text-anchor="start" x="391.5" y="-399.6" font-family="Bitstream Vera Sans" font-size="8.00">⚪ properties</text>
<text text-anchor="start" x="542.5" y="-399.6" font-family="Bitstream Vera Sans" font-size="8.00">JSONB</text>
<text text-anchor="start" x="391.5" y="-386.6" font-family="Bitstream Vera Sans" font-size="8.00">⚪ provider_pk</text>
<text text-anchor="start" x="542.5" y="-386.6" font-family="Bitstream Vera Sans" font-size="8.00">INTEGER</text>
<polygon fill="palegoldenrod" stroke="none" points="389.5,-369 389.5,-382 540.5,-382 540.5,-369 389.5,-369"/>
<text text-anchor="start" x="391.5" y="-373.6" font-family="Bitstream Vera Sans" font-size="8.00">» ix_plot_niamoto_plot_provider_id</text>
<polygon fill="palegoldenrod" stroke="none" points="540.5,-369 540.5,-382 641.5,-382 641.5,-369 540.5,-369"/>
<text text-anchor="start" x="542.5" y="-373.6" font-family="Bitstream Vera Sans" font-size="8.00">INDEX(provider_id)</text>
</g>
<!-- plot&#45;&gt;data_provider -->
<g id="edge5" class="edge"><title>plot&#45;&gt;data_provider</title>
<path fill="none" stroke="black" d="M515.5,-364.996C515.5,-342.62 515.5,-316.731 515.5,-293.29"/>
<polygon fill="none" stroke="black" points="515.5,-293.287 511.5,-287.287 515.5,-281.287 519.5,-287.287 515.5,-293.287"/>
<text text-anchor="middle" x="539.5" y="-327.6" font-family="Bitstream Vera Sans" font-size="8.00">provider_id</text>
</g>
<!-- plot_occurrence -->
<g id="node5" class="node"><title>plot_occurrence</title>
<polygon fill="lightyellow" stroke="none" points="186,-543 186,-677 547,-677 547,-543 186,-543"/>
<polygon fill="palegoldenrod" stroke="none" points="186.5,-660 186.5,-677 547.5,-677 547.5,-660 186.5,-660"/>
<text text-anchor="start" x="334.5" y="-666.6" font-family="Helvetica Bold" font-size="8.00">plot_occurrence</text>
<text text-anchor="start" x="188.5" y="-651.6" font-family="Bitstream Vera Sans" font-size="8.00">★ occurrence_id</text>
<text text-anchor="start" x="454.5" y="-651.6" font-family="Bitstream Vera Sans" font-size="8.00">INTEGER</text>
<text text-anchor="start" x="188.5" y="-638.6" font-family="Bitstream Vera Sans" font-size="8.00">★ plot_id</text>
<text text-anchor="start" x="454.5" y="-638.6" font-family="Bitstream Vera Sans" font-size="8.00">INTEGER</text>
<text text-anchor="start" x="188.5" y="-625.6" font-family="Bitstream Vera Sans" font-size="8.00">☆ provider_id</text>
<text text-anchor="start" x="454.5" y="-625.6" font-family="Bitstream Vera Sans" font-size="8.00">INTEGER</text>
<text text-anchor="start" x="188.5" y="-612.6" font-family="Bitstream Vera Sans" font-size="8.00">☆ provider_occurrence_pk</text>
<text text-anchor="start" x="454.5" y="-612.6" font-family="Bitstream Vera Sans" font-size="8.00">INTEGER</text>
<text text-anchor="start" x="188.5" y="-599.6" font-family="Bitstream Vera Sans" font-size="8.00">☆ provider_plot_pk</text>
<text text-anchor="start" x="454.5" y="-599.6" font-family="Bitstream Vera Sans" font-size="8.00">INTEGER</text>
<text text-anchor="start" x="188.5" y="-586.6" font-family="Bitstream Vera Sans" font-size="8.00">⚪ occurrence_identifier</text>
<text text-anchor="start" x="454.5" y="-586.6" font-family="Bitstream Vera Sans" font-size="8.00">VARCHAR(50)</text>
<polygon fill="palegoldenrod" stroke="none" points="186.5,-569 186.5,-582 452.5,-582 452.5,-569 186.5,-569"/>
<text text-anchor="start" x="188.5" y="-573.6" font-family="Bitstream Vera Sans" font-size="8.00">» ix_plot_occurrence_niamoto_plot_occurrence_occurrence_id</text>
<polygon fill="palegoldenrod" stroke="none" points="452.5,-569 452.5,-582 547.5,-582 547.5,-569 452.5,-569"/>
<text text-anchor="start" x="454.5" y="-573.6" font-family="Bitstream Vera Sans" font-size="8.00">INDEX(occurrence_id)</text>
<polygon fill="palegoldenrod" stroke="none" points="186.5,-556 186.5,-569 452.5,-569 452.5,-556 186.5,-556"/>
<text text-anchor="start" x="188.5" y="-560.6" font-family="Bitstream Vera Sans" font-size="8.00">» ix_plot_occurrence_niamoto_plot_occurrence_plot_id</text>
<polygon fill="palegoldenrod" stroke="none" points="452.5,-556 452.5,-569 547.5,-569 547.5,-556 452.5,-556"/>
<text text-anchor="start" x="454.5" y="-560.6" font-family="Bitstream Vera Sans" font-size="8.00">INDEX(plot_id)</text>
<polygon fill="palegoldenrod" stroke="none" points="186.5,-543 186.5,-556 452.5,-556 452.5,-543 186.5,-543"/>
<text text-anchor="start" x="188.5" y="-547.6" font-family="Bitstream Vera Sans" font-size="8.00">» ix_plot_occurrence_niamoto_plot_occurrence_provider_id</text>
<polygon fill="palegoldenrod" stroke="none" points="452.5,-543 452.5,-556 547.5,-556 547.5,-543 452.5,-543"/>
<text text-anchor="start" x="454.5" y="-547.6" font-family="Bitstream Vera Sans" font-size="8.00">INDEX(provider_id)</text>
</g>
<!-- plot_occurrence&#45;&gt;occurrence -->
<g id="edge7" class="edge"><title>plot_occurrence&#45;&gt;occurrence</title>
<path fill="none" stroke="black" d="M177.72,-549.781C167.721,-541.422 158.805,-531.884 151.5,-521 148.316,-516.256 146.554,-511.257 145.919,-506.132"/>
<polygon fill="none" stroke="black" points="145.924,-506 142.137,-499.863 146.345,-494.008 150.132,-500.144 145.924,-506"/>
<text text-anchor="middle" x="181.5" y="-514.6" font-family="Bitstream Vera Sans" font-size="8.00">occurrence_id</text>
</g>
<!-- plot_occurrence&#45;&gt;occurrence -->
<g id="edge8" class="edge"><title>plot_occurrence&#45;&gt;occurrence</title>
<path fill="none" stroke="black" d="M250.951,-538.857C245.03,-533.2 239.483,-527.243 234.5,-521 230.595,-516.107 227.068,-510.756 223.889,-505.161"/>
<polygon fill="none" stroke="black" points="223.711,-504.817 217.401,-501.326 218.196,-494.159 224.506,-497.65 223.711,-504.817"/>
<text text-anchor="middle" x="258.5" y="-514.6" font-family="Bitstream Vera Sans" font-size="8.00">provider_id</text>
</g>
<!-- plot_occurrence&#45;&gt;occurrence -->
<g id="edge11" class="edge"><title>plot_occurrence&#45;&gt;occurrence</title>
<path fill="none" stroke="black" d="M306.613,-538.925C298.583,-529.8 290.394,-520.63 282.5,-512 279.848,-509.1 277.135,-506.16 274.384,-503.201"/>
<polygon fill="none" stroke="black" points="274.24,-503.047 267.22,-501.399 266.041,-494.285 273.061,-495.933 274.24,-503.047"/>
<text text-anchor="middle" x="340.5" y="-514.6" font-family="Bitstream Vera Sans" font-size="8.00">provider_occurrence_pk</text>
</g>
<!-- plot_occurrence&#45;&gt;plot -->
<g id="edge6" class="edge"><title>plot_occurrence&#45;&gt;plot</title>
<path fill="none" stroke="black" d="M410.611,-538.749C417.025,-529.561 423.749,-520.423 430.5,-512 436.291,-504.775 442.575,-497.458 449.015,-490.291"/>
<polygon fill="none" stroke="black" points="449.131,-490.165 450.23,-483.038 457.232,-481.311 456.132,-488.438 449.131,-490.165"/>
<text text-anchor="middle" x="444.5" y="-514.6" font-family="Bitstream Vera Sans" font-size="8.00">plot_id</text>
</g>
<!-- plot_occurrence&#45;&gt;plot -->
<g id="edge9" class="edge"><title>plot_occurrence&#45;&gt;plot</title>
<path fill="none" stroke="black" d="M443.31,-538.793C448.641,-532.946 453.768,-526.98 458.5,-521 465.697,-511.906 472.621,-501.812 479.013,-491.672"/>
<polygon fill="none" stroke="black" points="479.203,-491.361 478.925,-484.155 485.47,-481.127 485.748,-488.333 479.203,-491.361"/>
<text text-anchor="middle" x="488.5" y="-514.6" font-family="Bitstream Vera Sans" font-size="8.00">provider_id</text>
</g>
<!-- plot_occurrence&#45;&gt;plot -->
<g id="edge10" class="edge"><title>plot_occurrence&#45;&gt;plot</title>
<path fill="none" stroke="black" d="M503.919,-538.668C508.654,-533.17 512.899,-527.288 516.5,-521 521.296,-512.625 523.895,-503.14 525.04,-493.46"/>
<polygon fill="none" stroke="black" points="525.059,-493.143 521.421,-486.917 525.769,-481.164 529.407,-487.39 525.059,-493.143"/>
<text text-anchor="middle" x="555.5" y="-514.6" font-family="Bitstream Vera Sans" font-size="8.00">provider_plot_pk</text>
</g>
<!-- raster_registry -->
<g id="node6" class="node"><title>raster_registry</title>
<polygon fill="lightyellow" stroke="none" points="581.5,-562.5 581.5,-657.5 711.5,-657.5 711.5,-562.5 581.5,-562.5"/>
<polygon fill="palegoldenrod" stroke="none" points="581.5,-640 581.5,-657 711.5,-657 711.5,-640 581.5,-640"/>
<text text-anchor="start" x="617.5" y="-646.6" font-family="Helvetica Bold" font-size="8.00">raster_registry</text>
<text text-anchor="start" x="583.5" y="-631.6" font-family="Bitstream Vera Sans" font-size="8.00">★ name</text>
<text text-anchor="start" x="650.5" y="-631.6" font-family="Bitstream Vera Sans" font-size="8.00">VARCHAR(100)</text>
<text text-anchor="start" x="583.5" y="-618.6" font-family="Bitstream Vera Sans" font-size="8.00">⚪ date_create</text>
<text text-anchor="start" x="650.5" y="-618.6" font-family="Bitstream Vera Sans" font-size="8.00">DATETIME</text>
<text text-anchor="start" x="583.5" y="-605.6" font-family="Bitstream Vera Sans" font-size="8.00">⚪ date_update</text>
<text text-anchor="start" x="650.5" y="-605.6" font-family="Bitstream Vera Sans" font-size="8.00">DATETIME</text>
<text text-anchor="start" x="583.5" y="-592.6" font-family="Bitstream Vera Sans" font-size="8.00">⚪ srid</text>
<text text-anchor="start" x="650.5" y="-592.6" font-family="Bitstream Vera Sans" font-size="8.00">INTEGER</text>
<text text-anchor="start" x="583.5" y="-579.6" font-family="Bitstream Vera Sans" font-size="8.00">⚪ tile_height</text>
<text text-anchor="start" x="650.5" y="-579.6" font-family="Bitstream Vera Sans" font-size="8.00">INTEGER</text>
<text text-anchor="start" x="583.5" y="-566.6" font-family="Bitstream Vera Sans" font-size="8.00">⚪ tile_width</text>
<text text-anchor="start" x="650.5" y="-566.6" font-family="Bitstream Vera Sans" font-size="8.00">INTEGER</text>
</g>
<!-- taxon&#45;&gt;taxon -->
<g id="edge12" class="edge"><title>taxon&#45;&gt;taxon</title>
<path fill="none" stroke="black" d="M249.086,-238.652C260.099,-235.36 267,-230.143 267,-223 267,-218.759 264.567,-215.197 260.285,-212.313"/>
<polygon fill="none" stroke="black" points="260.056,-212.212 252.949,-213.436 249.086,-207.348 256.192,-206.123 260.056,-212.212"/>
<text text-anchor="middle" x="287" y="-221.1" font-family="Bitstream Vera Sans" font-size="8.00">parent_id</text>
</g>
</g>
</svg>
