<?xml version="1.0" encoding="UTF-8" standalone="no"?>
<!DOCTYPE svg PUBLIC "-//W3C//DTD SVG 1.1//EN"
 "http://www.w3.org/Graphics/SVG/1.1/DTD/svg11.dtd">
<!-- Generated by graphviz version 2.38.0 (20140413.2041)
 -->
<!-- Title: G Pages: 1 -->
<svg width="1547pt" height="702pt"
 viewBox="0.00 0.00 1546.50 702.00" xmlns="http://www.w3.org/2000/svg" xmlns:xlink="http://www.w3.org/1999/xlink">
<g id="graph0" class="graph" transform="scale(1 1) rotate(0) translate(4 698)">
<title>G</title>
<polygon fill="white" stroke="none" points="-4,4 -4,-698 1542.5,-698 1542.5,4 -4,4"/>
<text text-anchor="middle" x="769.25" y="-6.6" font-family="Bitstream Vera Sans" font-size="8.00">generated by sadisplay v0.4.8</text>
<!-- data_provider -->
<g id="node1" class="node"><title>data_provider</title>
<polygon fill="lightyellow" stroke="none" points="488.5,-156 488.5,-290 850.5,-290 850.5,-156 488.5,-156"/>
<polygon fill="palegoldenrod" stroke="none" points="488.5,-273 488.5,-290 850.5,-290 850.5,-273 488.5,-273"/>
<text text-anchor="start" x="642" y="-279.6" font-family="Helvetica Bold" font-size="8.00">data_provider</text>
<text text-anchor="start" x="490.5" y="-264.6" font-family="Bitstream Vera Sans" font-size="8.00">★ id</text>
<text text-anchor="start" x="748.5" y="-264.6" font-family="Bitstream Vera Sans" font-size="8.00">INTEGER</text>
<text text-anchor="start" x="490.5" y="-251.6" font-family="Bitstream Vera Sans" font-size="8.00">☆ synonym_key_id</text>
<text text-anchor="start" x="748.5" y="-251.6" font-family="Bitstream Vera Sans" font-size="8.00">INTEGER</text>
<text text-anchor="start" x="490.5" y="-238.6" font-family="Bitstream Vera Sans" font-size="8.00">⚪ date_create</text>
<text text-anchor="start" x="748.5" y="-238.6" font-family="Bitstream Vera Sans" font-size="8.00">DATETIME</text>
<text text-anchor="start" x="490.5" y="-225.6" font-family="Bitstream Vera Sans" font-size="8.00">⚪ date_update</text>
<text text-anchor="start" x="748.5" y="-225.6" font-family="Bitstream Vera Sans" font-size="8.00">DATETIME</text>
<text text-anchor="start" x="490.5" y="-212.6" font-family="Bitstream Vera Sans" font-size="8.00">⚪ last_sync</text>
<text text-anchor="start" x="748.5" y="-212.6" font-family="Bitstream Vera Sans" font-size="8.00">DATETIME</text>
<text text-anchor="start" x="490.5" y="-199.6" font-family="Bitstream Vera Sans" font-size="8.00">⚪ name</text>
<text text-anchor="start" x="748.5" y="-199.6" font-family="Bitstream Vera Sans" font-size="8.00">VARCHAR(100)</text>
<text text-anchor="start" x="490.5" y="-186.6" font-family="Bitstream Vera Sans" font-size="8.00">⚪ properties</text>
<text text-anchor="start" x="748.5" y="-186.6" font-family="Bitstream Vera Sans" font-size="8.00">JSONB</text>
<text text-anchor="start" x="490.5" y="-173.6" font-family="Bitstream Vera Sans" font-size="8.00">⚪ provider_type_key</text>
<text text-anchor="start" x="748.5" y="-173.6" font-family="Bitstream Vera Sans" font-size="8.00">VARCHAR(100)</text>
<polygon fill="palegoldenrod" stroke="none" points="488.5,-156 488.5,-169 746.5,-169 746.5,-156 488.5,-156"/>
<text text-anchor="start" x="490.5" y="-160.6" font-family="Bitstream Vera Sans" font-size="8.00">» ix_data_provider_niamoto_data_provider_synonym_key_id</text>
<polygon fill="palegoldenrod" stroke="none" points="746.5,-156 746.5,-169 850.5,-169 850.5,-156 746.5,-156"/>
<text text-anchor="start" x="748.5" y="-160.6" font-family="Bitstream Vera Sans" font-size="8.00">INDEX(synonym_key_id)</text>
</g>
<!-- synonym_key_registry -->
<g id="node9" class="node"><title>synonym_key_registry</title>
<polygon fill="lightyellow" stroke="none" points="604.5,-21 604.5,-90 734.5,-90 734.5,-21 604.5,-21"/>
<polygon fill="palegoldenrod" stroke="none" points="604.5,-72.5 604.5,-89.5 734.5,-89.5 734.5,-72.5 604.5,-72.5"/>
<text text-anchor="start" x="625" y="-79.1" font-family="Helvetica Bold" font-size="8.00">synonym_key_registry</text>
<text text-anchor="start" x="606.5" y="-64.1" font-family="Bitstream Vera Sans" font-size="8.00">★ id</text>
<text text-anchor="start" x="673.5" y="-64.1" font-family="Bitstream Vera Sans" font-size="8.00">INTEGER</text>
<text text-anchor="start" x="606.5" y="-51.1" font-family="Bitstream Vera Sans" font-size="8.00">⚪ date_create</text>
<text text-anchor="start" x="673.5" y="-51.1" font-family="Bitstream Vera Sans" font-size="8.00">DATETIME</text>
<text text-anchor="start" x="606.5" y="-38.1" font-family="Bitstream Vera Sans" font-size="8.00">⚪ date_update</text>
<text text-anchor="start" x="673.5" y="-38.1" font-family="Bitstream Vera Sans" font-size="8.00">DATETIME</text>
<text text-anchor="start" x="606.5" y="-25.1" font-family="Bitstream Vera Sans" font-size="8.00">⚪ name</text>
<text text-anchor="start" x="673.5" y="-25.1" font-family="Bitstream Vera Sans" font-size="8.00">VARCHAR(100)</text>
</g>
<!-- data_provider&#45;&gt;synonym_key_registry -->
<g id="edge1" class="edge"><title>data_provider&#45;&gt;synonym_key_registry</title>
<path fill="none" stroke="black" d="M669.5,-151.813C669.5,-136.55 669.5,-120.703 669.5,-106.415"/>
<polygon fill="none" stroke="black" points="669.5,-106.313 665.5,-100.313 669.5,-94.3134 673.5,-100.313 669.5,-106.313"/>
<text text-anchor="middle" x="704.5" y="-114.6" font-family="Bitstream Vera Sans" font-size="8.00">synonym_key_id</text>
</g>
<!-- dimension_registry -->
<g id="node2" class="node"><title>dimension_registry</title>
<polygon fill="lightyellow" stroke="none" points="875,-569 875,-677 1038,-677 1038,-569 875,-569"/>
<polygon fill="palegoldenrod" stroke="none" points="875.5,-660 875.5,-677 1038.5,-677 1038.5,-660 875.5,-660"/>
<text text-anchor="start" x="919" y="-666.6" font-family="Helvetica Bold" font-size="8.00">dimension_registry</text>
<text text-anchor="start" x="877.5" y="-651.6" font-family="Bitstream Vera Sans" font-size="8.00">★ id</text>
<text text-anchor="start" x="977.5" y="-651.6" font-family="Bitstream Vera Sans" font-size="8.00">INTEGER</text>
<text text-anchor="start" x="877.5" y="-638.6" font-family="Bitstream Vera Sans" font-size="8.00">⚪ date_create</text>
<text text-anchor="start" x="977.5" y="-638.6" font-family="Bitstream Vera Sans" font-size="8.00">DATETIME</text>
<text text-anchor="start" x="877.5" y="-625.6" font-family="Bitstream Vera Sans" font-size="8.00">⚪ date_update</text>
<text text-anchor="start" x="977.5" y="-625.6" font-family="Bitstream Vera Sans" font-size="8.00">DATETIME</text>
<text text-anchor="start" x="877.5" y="-612.6" font-family="Bitstream Vera Sans" font-size="8.00">⚪ dimension_type_key</text>
<text text-anchor="start" x="977.5" y="-612.6" font-family="Bitstream Vera Sans" font-size="8.00">VARCHAR(100)</text>
<text text-anchor="start" x="877.5" y="-599.6" font-family="Bitstream Vera Sans" font-size="8.00">⚪ label_column</text>
<text text-anchor="start" x="977.5" y="-599.6" font-family="Bitstream Vera Sans" font-size="8.00">VARCHAR(100)</text>
<text text-anchor="start" x="877.5" y="-586.6" font-family="Bitstream Vera Sans" font-size="8.00">⚪ name</text>
<text text-anchor="start" x="977.5" y="-586.6" font-family="Bitstream Vera Sans" font-size="8.00">VARCHAR(100)</text>
<text text-anchor="start" x="877.5" y="-573.6" font-family="Bitstream Vera Sans" font-size="8.00">⚪ properties</text>
<text text-anchor="start" x="977.5" y="-573.6" font-family="Bitstream Vera Sans" font-size="8.00">JSONB</text>
</g>
<!-- fact_table_registry -->
<g id="node3" class="node"><title>fact_table_registry</title>
<polygon fill="lightyellow" stroke="none" points="1072.5,-582 1072.5,-664 1202.5,-664 1202.5,-582 1072.5,-582"/>
<polygon fill="palegoldenrod" stroke="none" points="1072.5,-647 1072.5,-664 1202.5,-664 1202.5,-647 1072.5,-647"/>
<text text-anchor="start" x="1100.5" y="-653.6" font-family="Helvetica Bold" font-size="8.00">fact_table_registry</text>
<text text-anchor="start" x="1074.5" y="-638.6" font-family="Bitstream Vera Sans" font-size="8.00">★ id</text>
<text text-anchor="start" x="1141.5" y="-638.6" font-family="Bitstream Vera Sans" font-size="8.00">INTEGER</text>
<text text-anchor="start" x="1074.5" y="-625.6" font-family="Bitstream Vera Sans" font-size="8.00">⚪ date_create</text>
<text text-anchor="start" x="1141.5" y="-625.6" font-family="Bitstream Vera Sans" font-size="8.00">DATETIME</text>
<text text-anchor="start" x="1074.5" y="-612.6" font-family="Bitstream Vera Sans" font-size="8.00">⚪ date_update</text>
<text text-anchor="start" x="1141.5" y="-612.6" font-family="Bitstream Vera Sans" font-size="8.00">DATETIME</text>
<text text-anchor="start" x="1074.5" y="-599.6" font-family="Bitstream Vera Sans" font-size="8.00">⚪ name</text>
<text text-anchor="start" x="1141.5" y="-599.6" font-family="Bitstream Vera Sans" font-size="8.00">VARCHAR(100)</text>
<text text-anchor="start" x="1074.5" y="-586.6" font-family="Bitstream Vera Sans" font-size="8.00">⚪ properties</text>
<text text-anchor="start" x="1141.5" y="-586.6" font-family="Bitstream Vera Sans" font-size="8.00">JSONB</text>
</g>
<!-- occurrence -->
<g id="node4" class="node"><title>occurrence</title>
<polygon fill="lightyellow" stroke="none" points="333,-356 333,-503 650,-503 650,-356 333,-356"/>
<polygon fill="palegoldenrod" stroke="none" points="333.5,-485.5 333.5,-502.5 650.5,-502.5 650.5,-485.5 333.5,-485.5"/>
<text text-anchor="start" x="469.5" y="-492.1" font-family="Helvetica Bold" font-size="8.00">occurrence</text>
<text text-anchor="start" x="335.5" y="-477.1" font-family="Bitstream Vera Sans" font-size="8.00">★ id</text>
<text text-anchor="start" x="551.5" y="-477.1" font-family="Bitstream Vera Sans" font-size="8.00">INTEGER</text>
<text text-anchor="start" x="335.5" y="-464.1" font-family="Bitstream Vera Sans" font-size="8.00">☆ provider_id</text>
<text text-anchor="start" x="551.5" y="-464.1" font-family="Bitstream Vera Sans" font-size="8.00">INTEGER</text>
<text text-anchor="start" x="335.5" y="-451.1" font-family="Bitstream Vera Sans" font-size="8.00">☆ taxon_id</text>
<text text-anchor="start" x="551.5" y="-451.1" font-family="Bitstream Vera Sans" font-size="8.00">INTEGER</text>
<text text-anchor="start" x="335.5" y="-438.1" font-family="Bitstream Vera Sans" font-size="8.00">⚪ location</text>
<text text-anchor="start" x="551.5" y="-438.1" font-family="Bitstream Vera Sans" font-size="8.00">geometry(POINT,4326)</text>
<text text-anchor="start" x="335.5" y="-425.1" font-family="Bitstream Vera Sans" font-size="8.00">⚪ properties</text>
<text text-anchor="start" x="551.5" y="-425.1" font-family="Bitstream Vera Sans" font-size="8.00">JSONB</text>
<text text-anchor="start" x="335.5" y="-412.1" font-family="Bitstream Vera Sans" font-size="8.00">⚪ provider_pk</text>
<text text-anchor="start" x="551.5" y="-412.1" font-family="Bitstream Vera Sans" font-size="8.00">INTEGER</text>
<text text-anchor="start" x="335.5" y="-399.1" font-family="Bitstream Vera Sans" font-size="8.00">⚪ provider_taxon_id</text>
<text text-anchor="start" x="551.5" y="-399.1" font-family="Bitstream Vera Sans" font-size="8.00">INTEGER</text>
<polygon fill="palegoldenrod" stroke="none" points="333.5,-381.5 333.5,-394.5 549.5,-394.5 549.5,-381.5 333.5,-381.5"/>
<text text-anchor="start" x="335.5" y="-386.1" font-family="Bitstream Vera Sans" font-size="8.00">» ix_occurrence_niamoto_occurrence_provider_id</text>
<polygon fill="palegoldenrod" stroke="none" points="549.5,-381.5 549.5,-394.5 650.5,-394.5 650.5,-381.5 549.5,-381.5"/>
<text text-anchor="start" x="551.5" y="-386.1" font-family="Bitstream Vera Sans" font-size="8.00">INDEX(provider_id)</text>
<polygon fill="palegoldenrod" stroke="none" points="333.5,-368.5 333.5,-381.5 549.5,-381.5 549.5,-368.5 333.5,-368.5"/>
<text text-anchor="start" x="335.5" y="-373.1" font-family="Bitstream Vera Sans" font-size="8.00">» ix_occurrence_niamoto_occurrence_provider_pk</text>
<polygon fill="palegoldenrod" stroke="none" points="549.5,-368.5 549.5,-381.5 650.5,-381.5 650.5,-368.5 549.5,-368.5"/>
<text text-anchor="start" x="551.5" y="-373.1" font-family="Bitstream Vera Sans" font-size="8.00">INDEX(provider_pk)</text>
<polygon fill="palegoldenrod" stroke="none" points="333.5,-355.5 333.5,-368.5 549.5,-368.5 549.5,-355.5 333.5,-355.5"/>
<text text-anchor="start" x="335.5" y="-360.1" font-family="Bitstream Vera Sans" font-size="8.00">» ix_occurrence_niamoto_occurrence_taxon_id</text>
<polygon fill="palegoldenrod" stroke="none" points="549.5,-355.5 549.5,-368.5 650.5,-368.5 650.5,-355.5 549.5,-355.5"/>
<text text-anchor="start" x="551.5" y="-360.1" font-family="Bitstream Vera Sans" font-size="8.00">INDEX(taxon_id)</text>
</g>
<!-- occurrence&#45;&gt;data_provider -->
<g id="edge2" class="edge"><title>occurrence&#45;&gt;data_provider</title>
<path fill="none" stroke="black" d="M558.287,-351.77C572.059,-335.948 586.588,-319.255 600.439,-303.343"/>
<polygon fill="none" stroke="black" points="600.626,-303.128 601.548,-295.976 608.504,-294.077 607.582,-301.229 600.626,-303.128"/>
<text text-anchor="middle" x="604.5" y="-327.6" font-family="Bitstream Vera Sans" font-size="8.00">provider_id</text>
</g>
<!-- taxon -->
<g id="node10" class="node"><title>taxon</title>
<polygon fill="lightyellow" stroke="none" points="121,-143 121,-303 354,-303 354,-143 121,-143"/>
<polygon fill="palegoldenrod" stroke="none" points="121.5,-286 121.5,-303 354.5,-303 354.5,-286 121.5,-286"/>
<text text-anchor="start" x="226.5" y="-292.6" font-family="Helvetica Bold" font-size="8.00">taxon</text>
<text text-anchor="start" x="123.5" y="-277.6" font-family="Bitstream Vera Sans" font-size="8.00">★ id</text>
<text text-anchor="start" x="281.5" y="-277.6" font-family="Bitstream Vera Sans" font-size="8.00">INTEGER</text>
<text text-anchor="start" x="123.5" y="-264.6" font-family="Bitstream Vera Sans" font-size="8.00">☆ parent_id</text>
<text text-anchor="start" x="281.5" y="-264.6" font-family="Bitstream Vera Sans" font-size="8.00">INTEGER</text>
<text text-anchor="start" x="123.5" y="-251.6" font-family="Bitstream Vera Sans" font-size="8.00">⚪ full_name</text>
<text text-anchor="start" x="281.5" y="-251.6" font-family="Bitstream Vera Sans" font-size="8.00">TEXT</text>
<text text-anchor="start" x="123.5" y="-238.6" font-family="Bitstream Vera Sans" font-size="8.00">⚪ mptt_depth</text>
<text text-anchor="start" x="281.5" y="-238.6" font-family="Bitstream Vera Sans" font-size="8.00">INTEGER</text>
<text text-anchor="start" x="123.5" y="-225.6" font-family="Bitstream Vera Sans" font-size="8.00">⚪ mptt_left</text>
<text text-anchor="start" x="281.5" y="-225.6" font-family="Bitstream Vera Sans" font-size="8.00">INTEGER</text>
<text text-anchor="start" x="123.5" y="-212.6" font-family="Bitstream Vera Sans" font-size="8.00">⚪ mptt_right</text>
<text text-anchor="start" x="281.5" y="-212.6" font-family="Bitstream Vera Sans" font-size="8.00">INTEGER</text>
<text text-anchor="start" x="123.5" y="-199.6" font-family="Bitstream Vera Sans" font-size="8.00">⚪ mptt_tree_id</text>
<text text-anchor="start" x="281.5" y="-199.6" font-family="Bitstream Vera Sans" font-size="8.00">INTEGER</text>
<text text-anchor="start" x="123.5" y="-186.6" font-family="Bitstream Vera Sans" font-size="8.00">⚪ rank</text>
<text text-anchor="start" x="281.5" y="-186.6" font-family="Bitstream Vera Sans" font-size="8.00">VARCHAR(12)</text>
<text text-anchor="start" x="123.5" y="-173.6" font-family="Bitstream Vera Sans" font-size="8.00">⚪ rank_name</text>
<text text-anchor="start" x="281.5" y="-173.6" font-family="Bitstream Vera Sans" font-size="8.00">TEXT</text>
<text text-anchor="start" x="123.5" y="-160.6" font-family="Bitstream Vera Sans" font-size="8.00">⚪ synonyms</text>
<text text-anchor="start" x="281.5" y="-160.6" font-family="Bitstream Vera Sans" font-size="8.00">JSONB</text>
<polygon fill="palegoldenrod" stroke="none" points="121.5,-143 121.5,-156 279.5,-156 279.5,-143 121.5,-143"/>
<text text-anchor="start" x="123.5" y="-147.6" font-family="Bitstream Vera Sans" font-size="8.00">» ix_taxon_niamoto_taxon_parent_id</text>
<polygon fill="palegoldenrod" stroke="none" points="279.5,-143 279.5,-156 354.5,-156 354.5,-143 279.5,-143"/>
<text text-anchor="start" x="281.5" y="-147.6" font-family="Bitstream Vera Sans" font-size="8.00">INDEX(parent_id)</text>
</g>
<!-- occurrence&#45;&gt;taxon -->
<g id="edge3" class="edge"><title>occurrence&#45;&gt;taxon</title>
<path fill="none" stroke="black" d="M396.197,-351.77C381.276,-339.756 365.731,-327.241 350.46,-314.946"/>
<polygon fill="none" stroke="black" points="350.342,-314.851 343.16,-314.204 340.995,-307.325 348.177,-307.973 350.342,-314.851"/>
<text text-anchor="middle" x="390.5" y="-327.6" font-family="Bitstream Vera Sans" font-size="8.00">taxon_id</text>
</g>
<!-- plot -->
<g id="node5" class="node"><title>plot</title>
<polygon fill="lightyellow" stroke="none" points="684.5,-375.5 684.5,-483.5 936.5,-483.5 936.5,-375.5 684.5,-375.5"/>
<polygon fill="palegoldenrod" stroke="none" points="684.5,-466.5 684.5,-483.5 936.5,-483.5 936.5,-466.5 684.5,-466.5"/>
<text text-anchor="start" x="802.5" y="-473.1" font-family="Helvetica Bold" font-size="8.00">plot</text>
<text text-anchor="start" x="686.5" y="-458.1" font-family="Bitstream Vera Sans" font-size="8.00">★ id</text>
<text text-anchor="start" x="837.5" y="-458.1" font-family="Bitstream Vera Sans" font-size="8.00">INTEGER</text>
<text text-anchor="start" x="686.5" y="-445.1" font-family="Bitstream Vera Sans" font-size="8.00">☆ provider_id</text>
<text text-anchor="start" x="837.5" y="-445.1" font-family="Bitstream Vera Sans" font-size="8.00">INTEGER</text>
<text text-anchor="start" x="686.5" y="-432.1" font-family="Bitstream Vera Sans" font-size="8.00">⚪ location</text>
<text text-anchor="start" x="837.5" y="-432.1" font-family="Bitstream Vera Sans" font-size="8.00">geometry(POINT,4326)</text>
<text text-anchor="start" x="686.5" y="-419.1" font-family="Bitstream Vera Sans" font-size="8.00">⚪ name</text>
<text text-anchor="start" x="837.5" y="-419.1" font-family="Bitstream Vera Sans" font-size="8.00">VARCHAR(100)</text>
<text text-anchor="start" x="686.5" y="-406.1" font-family="Bitstream Vera Sans" font-size="8.00">⚪ properties</text>
<text text-anchor="start" x="837.5" y="-406.1" font-family="Bitstream Vera Sans" font-size="8.00">JSONB</text>
<text text-anchor="start" x="686.5" y="-393.1" font-family="Bitstream Vera Sans" font-size="8.00">⚪ provider_pk</text>
<text text-anchor="start" x="837.5" y="-393.1" font-family="Bitstream Vera Sans" font-size="8.00">INTEGER</text>
<polygon fill="palegoldenrod" stroke="none" points="684.5,-375.5 684.5,-388.5 835.5,-388.5 835.5,-375.5 684.5,-375.5"/>
<text text-anchor="start" x="686.5" y="-380.1" font-family="Bitstream Vera Sans" font-size="8.00">» ix_plot_niamoto_plot_provider_id</text>
<polygon fill="palegoldenrod" stroke="none" points="835.5,-375.5 835.5,-388.5 936.5,-388.5 936.5,-375.5 835.5,-375.5"/>
<text text-anchor="start" x="837.5" y="-380.1" font-family="Bitstream Vera Sans" font-size="8.00">INDEX(provider_id)</text>
</g>
<!-- plot&#45;&gt;data_provider -->
<g id="edge4" class="edge"><title>plot&#45;&gt;data_provider</title>
<path fill="none" stroke="black" d="M771.036,-371.263C756.765,-350.565 740.374,-326.792 724.984,-304.471"/>
<polygon fill="none" stroke="black" points="724.806,-304.213 718.107,-301.544 717.994,-294.334 724.693,-297.003 724.806,-304.213"/>
<text text-anchor="middle" x="767.5" y="-327.6" font-family="Bitstream Vera Sans" font-size="8.00">provider_id</text>
</g>
<!-- plot_occurrence -->
<g id="node6" class="node"><title>plot_occurrence</title>
<polygon fill="lightyellow" stroke="none" points="480,-556 480,-690 841,-690 841,-556 480,-556"/>
<polygon fill="palegoldenrod" stroke="none" points="480.5,-673 480.5,-690 841.5,-690 841.5,-673 480.5,-673"/>
<text text-anchor="start" x="628.5" y="-679.6" font-family="Helvetica Bold" font-size="8.00">plot_occurrence</text>
<text text-anchor="start" x="482.5" y="-664.6" font-family="Bitstream Vera Sans" font-size="8.00">★ occurrence_id</text>
<text text-anchor="start" x="748.5" y="-664.6" font-family="Bitstream Vera Sans" font-size="8.00">INTEGER</text>
<text text-anchor="start" x="482.5" y="-651.6" font-family="Bitstream Vera Sans" font-size="8.00">★ plot_id</text>
<text text-anchor="start" x="748.5" y="-651.6" font-family="Bitstream Vera Sans" font-size="8.00">INTEGER</text>
<text text-anchor="start" x="482.5" y="-638.6" font-family="Bitstream Vera Sans" font-size="8.00">☆ provider_id</text>
<text text-anchor="start" x="748.5" y="-638.6" font-family="Bitstream Vera Sans" font-size="8.00">INTEGER</text>
<text text-anchor="start" x="482.5" y="-625.6" font-family="Bitstream Vera Sans" font-size="8.00">☆ provider_occurrence_pk</text>
<text text-anchor="start" x="748.5" y="-625.6" font-family="Bitstream Vera Sans" font-size="8.00">INTEGER</text>
<text text-anchor="start" x="482.5" y="-612.6" font-family="Bitstream Vera Sans" font-size="8.00">☆ provider_plot_pk</text>
<text text-anchor="start" x="748.5" y="-612.6" font-family="Bitstream Vera Sans" font-size="8.00">INTEGER</text>
<text text-anchor="start" x="482.5" y="-599.6" font-family="Bitstream Vera Sans" font-size="8.00">⚪ occurrence_identifier</text>
<text text-anchor="start" x="748.5" y="-599.6" font-family="Bitstream Vera Sans" font-size="8.00">VARCHAR(50)</text>
<polygon fill="palegoldenrod" stroke="none" points="480.5,-582 480.5,-595 746.5,-595 746.5,-582 480.5,-582"/>
<text text-anchor="start" x="482.5" y="-586.6" font-family="Bitstream Vera Sans" font-size="8.00">» ix_plot_occurrence_niamoto_plot_occurrence_occurrence_id</text>
<polygon fill="palegoldenrod" stroke="none" points="746.5,-582 746.5,-595 841.5,-595 841.5,-582 746.5,-582"/>
<text text-anchor="start" x="748.5" y="-586.6" font-family="Bitstream Vera Sans" font-size="8.00">INDEX(occurrence_id)</text>
<polygon fill="palegoldenrod" stroke="none" points="480.5,-569 480.5,-582 746.5,-582 746.5,-569 480.5,-569"/>
<text text-anchor="start" x="482.5" y="-573.6" font-family="Bitstream Vera Sans" font-size="8.00">» ix_plot_occurrence_niamoto_plot_occurrence_plot_id</text>
<polygon fill="palegoldenrod" stroke="none" points="746.5,-569 746.5,-582 841.5,-582 841.5,-569 746.5,-569"/>
<text text-anchor="start" x="748.5" y="-573.6" font-family="Bitstream Vera Sans" font-size="8.00">INDEX(plot_id)</text>
<polygon fill="palegoldenrod" stroke="none" points="480.5,-556 480.5,-569 746.5,-569 746.5,-556 480.5,-556"/>
<text text-anchor="start" x="482.5" y="-560.6" font-family="Bitstream Vera Sans" font-size="8.00">» ix_plot_occurrence_niamoto_plot_occurrence_provider_id</text>
<polygon fill="palegoldenrod" stroke="none" points="746.5,-556 746.5,-569 841.5,-569 841.5,-556 746.5,-556"/>
<text text-anchor="start" x="748.5" y="-560.6" font-family="Bitstream Vera Sans" font-size="8.00">INDEX(provider_id)</text>
</g>
<!-- plot_occurrence&#45;&gt;occurrence -->
<g id="edge6" class="edge"><title>plot_occurrence&#45;&gt;occurrence</title>
<path fill="none" stroke="black" d="M471.72,-562.781C461.721,-554.422 452.805,-544.884 445.5,-534 442.325,-529.27 440.458,-524.286 439.643,-519.165"/>
<polygon fill="none" stroke="black" points="439.642,-519.022 435.587,-513.059 439.532,-507.023 443.587,-512.986 439.642,-519.022"/>
<text text-anchor="middle" x="475.5" y="-527.6" font-family="Bitstream Vera Sans" font-size="8.00">occurrence_id</text>
</g>
<!-- plot_occurrence&#45;&gt;occurrence -->
<g id="edge7" class="edge"><title>plot_occurrence&#45;&gt;occurrence</title>
<path fill="none" stroke="black" d="M544.795,-551.98C538.913,-546.293 533.416,-540.295 528.5,-534 524.671,-529.097 521.217,-523.764 518.104,-518.191"/>
<polygon fill="none" stroke="black" points="517.968,-517.923 511.684,-514.386 512.532,-507.225 518.816,-510.762 517.968,-517.923"/>
<text text-anchor="middle" x="552.5" y="-527.6" font-family="Bitstream Vera Sans" font-size="8.00">provider_id</text>
</g>
<!-- plot_occurrence&#45;&gt;occurrence -->
<g id="edge10" class="edge"><title>plot_occurrence&#45;&gt;occurrence</title>
<path fill="none" stroke="black" d="M600.092,-551.926C592.183,-542.844 584.165,-533.685 576.5,-525 574.025,-522.195 571.504,-519.347 568.956,-516.475"/>
<polygon fill="none" stroke="black" points="568.716,-516.205 561.74,-514.379 560.742,-507.238 567.718,-509.063 568.716,-516.205"/>
<text text-anchor="middle" x="634.5" y="-527.6" font-family="Bitstream Vera Sans" font-size="8.00">provider_occurrence_pk</text>
</g>
<!-- plot_occurrence&#45;&gt;plot -->
<g id="edge5" class="edge"><title>plot_occurrence&#45;&gt;plot</title>
<path fill="none" stroke="black" d="M704.848,-551.935C711.224,-542.718 717.875,-533.522 724.5,-525 731.75,-515.674 739.704,-506.139 747.757,-496.885"/>
<polygon fill="none" stroke="black" points="747.882,-496.743 748.851,-489.598 755.82,-487.744 754.851,-494.89 747.882,-496.743"/>
<text text-anchor="middle" x="738.5" y="-527.6" font-family="Bitstream Vera Sans" font-size="8.00">plot_id</text>
</g>
<!-- plot_occurrence&#45;&gt;plot -->
<g id="edge8" class="edge"><title>plot_occurrence&#45;&gt;plot</title>
<path fill="none" stroke="black" d="M737.448,-551.902C742.747,-546.029 747.83,-540.028 752.5,-534 760.989,-523.044 769.023,-510.697 776.254,-498.446"/>
<polygon fill="none" stroke="black" points="776.422,-498.153 775.938,-490.958 782.393,-487.744 782.877,-494.938 776.422,-498.153"/>
<text text-anchor="middle" x="781.5" y="-527.6" font-family="Bitstream Vera Sans" font-size="8.00">provider_id</text>
</g>
<!-- plot_occurrence&#45;&gt;plot -->
<g id="edge9" class="edge"><title>plot_occurrence&#45;&gt;plot</title>
<path fill="none" stroke="black" d="M796.64,-551.903C801.481,-546.335 805.82,-540.375 809.5,-534 815.4,-523.778 818.339,-511.987 819.447,-500.107"/>
<polygon fill="none" stroke="black" points="819.463,-499.743 815.728,-493.575 819.986,-487.755 823.721,-493.924 819.463,-499.743"/>
<text text-anchor="middle" x="847.5" y="-527.6" font-family="Bitstream Vera Sans" font-size="8.00">provider_plot_pk</text>
</g>
<!-- raster_registry -->
<g id="node7" class="node"><title>raster_registry</title>
<polygon fill="lightyellow" stroke="none" points="1236.5,-582 1236.5,-664 1366.5,-664 1366.5,-582 1236.5,-582"/>
<polygon fill="palegoldenrod" stroke="none" points="1236.5,-647 1236.5,-664 1366.5,-664 1366.5,-647 1236.5,-647"/>
<text text-anchor="start" x="1272.5" y="-653.6" font-family="Helvetica Bold" font-size="8.00">raster_registry</text>
<text text-anchor="start" x="1238.5" y="-638.6" font-family="Bitstream Vera Sans" font-size="8.00">★ id</text>
<text text-anchor="start" x="1305.5" y="-638.6" font-family="Bitstream Vera Sans" font-size="8.00">INTEGER</text>
<text text-anchor="start" x="1238.5" y="-625.6" font-family="Bitstream Vera Sans" font-size="8.00">⚪ date_create</text>
<text text-anchor="start" x="1305.5" y="-625.6" font-family="Bitstream Vera Sans" font-size="8.00">DATETIME</text>
<text text-anchor="start" x="1238.5" y="-612.6" font-family="Bitstream Vera Sans" font-size="8.00">⚪ date_update</text>
<text text-anchor="start" x="1305.5" y="-612.6" font-family="Bitstream Vera Sans" font-size="8.00">DATETIME</text>
<text text-anchor="start" x="1238.5" y="-599.6" font-family="Bitstream Vera Sans" font-size="8.00">⚪ name</text>
<text text-anchor="start" x="1305.5" y="-599.6" font-family="Bitstream Vera Sans" font-size="8.00">VARCHAR(100)</text>
<text text-anchor="start" x="1238.5" y="-586.6" font-family="Bitstream Vera Sans" font-size="8.00">⚪ properties</text>
<text text-anchor="start" x="1305.5" y="-586.6" font-family="Bitstream Vera Sans" font-size="8.00">JSONB</text>
</g>
<!-- sdm_registry -->
<g id="node8" class="node"><title>sdm_registry</title>
<polygon fill="lightyellow" stroke="none" points="8,-375.5 8,-483.5 299,-483.5 299,-375.5 8,-375.5"/>
<polygon fill="palegoldenrod" stroke="none" points="8.5,-466.5 8.5,-483.5 299.5,-483.5 299.5,-466.5 8.5,-466.5"/>
<text text-anchor="start" x="128" y="-473.1" font-family="Helvetica Bold" font-size="8.00">sdm_registry</text>
<text text-anchor="start" x="10.5" y="-458.1" font-family="Bitstream Vera Sans" font-size="8.00">★ id</text>
<text text-anchor="start" x="230.5" y="-458.1" font-family="Bitstream Vera Sans" font-size="8.00">INTEGER</text>
<text text-anchor="start" x="10.5" y="-445.1" font-family="Bitstream Vera Sans" font-size="8.00">☆ taxon_id</text>
<text text-anchor="start" x="230.5" y="-445.1" font-family="Bitstream Vera Sans" font-size="8.00">INTEGER</text>
<text text-anchor="start" x="10.5" y="-432.1" font-family="Bitstream Vera Sans" font-size="8.00">⚪ date_create</text>
<text text-anchor="start" x="230.5" y="-432.1" font-family="Bitstream Vera Sans" font-size="8.00">DATETIME</text>
<text text-anchor="start" x="10.5" y="-419.1" font-family="Bitstream Vera Sans" font-size="8.00">⚪ date_update</text>
<text text-anchor="start" x="230.5" y="-419.1" font-family="Bitstream Vera Sans" font-size="8.00">DATETIME</text>
<text text-anchor="start" x="10.5" y="-406.1" font-family="Bitstream Vera Sans" font-size="8.00">⚪ name</text>
<text text-anchor="start" x="230.5" y="-406.1" font-family="Bitstream Vera Sans" font-size="8.00">VARCHAR(100)</text>
<text text-anchor="start" x="10.5" y="-393.1" font-family="Bitstream Vera Sans" font-size="8.00">⚪ properties</text>
<text text-anchor="start" x="230.5" y="-393.1" font-family="Bitstream Vera Sans" font-size="8.00">JSONB</text>
<polygon fill="palegoldenrod" stroke="none" points="8.5,-375.5 8.5,-388.5 228.5,-388.5 228.5,-375.5 8.5,-375.5"/>
<text text-anchor="start" x="10.5" y="-380.1" font-family="Bitstream Vera Sans" font-size="8.00">» ix_sdm_registry_niamoto_sdm_registry_taxon_id</text>
<polygon fill="palegoldenrod" stroke="none" points="228.5,-375.5 228.5,-388.5 299.5,-388.5 299.5,-375.5 228.5,-375.5"/>
<text text-anchor="start" x="230.5" y="-380.1" font-family="Bitstream Vera Sans" font-size="8.00">INDEX(taxon_id)</text>
</g>
<!-- sdm_registry&#45;&gt;taxon -->
<g id="edge11" class="edge"><title>sdm_registry&#45;&gt;taxon</title>
<path fill="none" stroke="black" d="M177.01,-371.263C183.763,-354.824 191.312,-336.446 198.726,-318.396"/>
<polygon fill="none" stroke="black" points="198.757,-318.32 197.337,-311.25 203.317,-307.219 204.737,-314.289 198.757,-318.32"/>
<text text-anchor="middle" x="213.5" y="-327.6" font-family="Bitstream Vera Sans" font-size="8.00">taxon_id</text>
</g>
<!-- taxon&#45;&gt;taxon -->
<g id="edge12" class="edge"><title>taxon&#45;&gt;taxon</title>
<path fill="none" stroke="black" d="M362.086,-238.652C373.099,-235.36 380,-230.143 380,-223 380,-218.759 377.567,-215.197 373.285,-212.313"/>
<polygon fill="none" stroke="black" points="373.056,-212.212 365.949,-213.436 362.086,-207.348 369.192,-206.123 373.056,-212.212"/>
<text text-anchor="middle" x="400" y="-221.1" font-family="Bitstream Vera Sans" font-size="8.00">parent_id</text>
</g>
<!-- vector_registry -->
<g id="node11" class="node"><title>vector_registry</title>
<polygon fill="lightyellow" stroke="none" points="1400.5,-582 1400.5,-664 1530.5,-664 1530.5,-582 1400.5,-582"/>
<polygon fill="palegoldenrod" stroke="none" points="1400.5,-647 1400.5,-664 1530.5,-664 1530.5,-647 1400.5,-647"/>
<text text-anchor="start" x="1435.5" y="-653.6" font-family="Helvetica Bold" font-size="8.00">vector_registry</text>
<text text-anchor="start" x="1402.5" y="-638.6" font-family="Bitstream Vera Sans" font-size="8.00">★ id</text>
<text text-anchor="start" x="1469.5" y="-638.6" font-family="Bitstream Vera Sans" font-size="8.00">INTEGER</text>
<text text-anchor="start" x="1402.5" y="-625.6" font-family="Bitstream Vera Sans" font-size="8.00">⚪ date_create</text>
<text text-anchor="start" x="1469.5" y="-625.6" font-family="Bitstream Vera Sans" font-size="8.00">DATETIME</text>
<text text-anchor="start" x="1402.5" y="-612.6" font-family="Bitstream Vera Sans" font-size="8.00">⚪ date_update</text>
<text text-anchor="start" x="1469.5" y="-612.6" font-family="Bitstream Vera Sans" font-size="8.00">DATETIME</text>
<text text-anchor="start" x="1402.5" y="-599.6" font-family="Bitstream Vera Sans" font-size="8.00">⚪ name</text>
<text text-anchor="start" x="1469.5" y="-599.6" font-family="Bitstream Vera Sans" font-size="8.00">VARCHAR(100)</text>
<text text-anchor="start" x="1402.5" y="-586.6" font-family="Bitstream Vera Sans" font-size="8.00">⚪ properties</text>
<text text-anchor="start" x="1469.5" y="-586.6" font-family="Bitstream Vera Sans" font-size="8.00">JSONB</text>
</g>
</g>
</svg>
