<?xml version="1.0" encoding="UTF-8" standalone="no"?>
<!DOCTYPE svg PUBLIC "-//W3C//DTD SVG 1.1//EN"
 "http://www.w3.org/Graphics/SVG/1.1/DTD/svg11.dtd">
<!-- Generated by graphviz version 2.38.0 (20140413.2041)
 -->
<!-- Title: G Pages: 1 -->
<svg width="892pt" height="702pt"
 viewBox="0.00 0.00 891.50 702.00" xmlns="http://www.w3.org/2000/svg" xmlns:xlink="http://www.w3.org/1999/xlink">
<g id="graph0" class="graph" transform="scale(1 1) rotate(0) translate(4 698)">
<title>G</title>
<polygon fill="white" stroke="none" points="-4,4 -4,-698 887.5,-698 887.5,4 -4,4"/>
<text text-anchor="middle" x="441.75" y="-6.6" font-family="Bitstream Vera Sans" font-size="8.00">generated by sadisplay v0.4.8</text>
<!-- data_provider -->
<g id="node1" class="node"><title>data_provider</title>
<polygon fill="lightyellow" stroke="none" points="333.5,-149.5 333.5,-296.5 697.5,-296.5 697.5,-149.5 333.5,-149.5"/>
<polygon fill="palegoldenrod" stroke="none" points="333.5,-279 333.5,-296 697.5,-296 697.5,-279 333.5,-279"/>
<text text-anchor="start" x="488" y="-285.6" font-family="Helvetica Bold" font-size="8.00">data_provider</text>
<text text-anchor="start" x="335.5" y="-270.6" font-family="Bitstream Vera Sans" font-size="8.00">★ id</text>
<text text-anchor="start" x="594.5" y="-270.6" font-family="Bitstream Vera Sans" font-size="8.00">INTEGER</text>
<text text-anchor="start" x="335.5" y="-257.6" font-family="Bitstream Vera Sans" font-size="8.00">☆ provider_type_id</text>
<text text-anchor="start" x="594.5" y="-257.6" font-family="Bitstream Vera Sans" font-size="8.00">INTEGER</text>
<text text-anchor="start" x="335.5" y="-244.6" font-family="Bitstream Vera Sans" font-size="8.00">☆ synonym_key_id</text>
<text text-anchor="start" x="594.5" y="-244.6" font-family="Bitstream Vera Sans" font-size="8.00">INTEGER</text>
<text text-anchor="start" x="335.5" y="-231.6" font-family="Bitstream Vera Sans" font-size="8.00">⚪ date_create</text>
<text text-anchor="start" x="594.5" y="-231.6" font-family="Bitstream Vera Sans" font-size="8.00">DATETIME</text>
<text text-anchor="start" x="335.5" y="-218.6" font-family="Bitstream Vera Sans" font-size="8.00">⚪ date_update</text>
<text text-anchor="start" x="594.5" y="-218.6" font-family="Bitstream Vera Sans" font-size="8.00">DATETIME</text>
<text text-anchor="start" x="335.5" y="-205.6" font-family="Bitstream Vera Sans" font-size="8.00">⚪ last_sync</text>
<text text-anchor="start" x="594.5" y="-205.6" font-family="Bitstream Vera Sans" font-size="8.00">DATETIME</text>
<text text-anchor="start" x="335.5" y="-192.6" font-family="Bitstream Vera Sans" font-size="8.00">⚪ name</text>
<text text-anchor="start" x="594.5" y="-192.6" font-family="Bitstream Vera Sans" font-size="8.00">VARCHAR(100)</text>
<text text-anchor="start" x="335.5" y="-179.6" font-family="Bitstream Vera Sans" font-size="8.00">⚪ properties</text>
<text text-anchor="start" x="594.5" y="-179.6" font-family="Bitstream Vera Sans" font-size="8.00">JSONB</text>
<polygon fill="palegoldenrod" stroke="none" points="333.5,-162 333.5,-175 592.5,-175 592.5,-162 333.5,-162"/>
<text text-anchor="start" x="335.5" y="-166.6" font-family="Bitstream Vera Sans" font-size="8.00">» ix_data_provider_niamoto_data_provider_provider_type_id</text>
<polygon fill="palegoldenrod" stroke="none" points="592.5,-162 592.5,-175 697.5,-175 697.5,-162 592.5,-162"/>
<text text-anchor="start" x="594.5" y="-166.6" font-family="Bitstream Vera Sans" font-size="8.00">INDEX(provider_type_id)</text>
<polygon fill="palegoldenrod" stroke="none" points="333.5,-149 333.5,-162 592.5,-162 592.5,-149 333.5,-149"/>
<text text-anchor="start" x="335.5" y="-153.6" font-family="Bitstream Vera Sans" font-size="8.00">» ix_data_provider_niamoto_data_provider_synonym_key_id</text>
<polygon fill="palegoldenrod" stroke="none" points="592.5,-149 592.5,-162 697.5,-162 697.5,-149 592.5,-149"/>
<text text-anchor="start" x="594.5" y="-153.6" font-family="Bitstream Vera Sans" font-size="8.00">INDEX(synonym_key_id)</text>
</g>
<!-- data_provider_type -->
<g id="node2" class="node"><title>data_provider_type</title>
<polygon fill="lightyellow" stroke="none" points="390,-34 390,-77 491,-77 491,-34 390,-34"/>
<polygon fill="palegoldenrod" stroke="none" points="390.5,-59.5 390.5,-76.5 491.5,-76.5 491.5,-59.5 390.5,-59.5"/>
<text text-anchor="start" x="402.5" y="-66.1" font-family="Helvetica Bold" font-size="8.00">data_provider_type</text>
<text text-anchor="start" x="392.5" y="-51.1" font-family="Bitstream Vera Sans" font-size="8.00">★ id</text>
<text text-anchor="start" x="430.5" y="-51.1" font-family="Bitstream Vera Sans" font-size="8.00">INTEGER</text>
<text text-anchor="start" x="392.5" y="-38.1" font-family="Bitstream Vera Sans" font-size="8.00">⚪ name</text>
<text text-anchor="start" x="430.5" y="-38.1" font-family="Bitstream Vera Sans" font-size="8.00">VARCHAR(100)</text>
</g>
<!-- data_provider&#45;&gt;data_provider_type -->
<g id="edge1" class="edge"><title>data_provider&#45;&gt;data_provider_type</title>
<path fill="none" stroke="black" d="M480.635,-145.064C472.282,-126.633 463.755,-107.816 456.72,-92.2931"/>
<polygon fill="none" stroke="black" points="456.613,-92.0563 450.493,-88.2423 451.66,-81.1262 457.78,-84.9401 456.613,-92.0563"/>
<text text-anchor="middle" x="504.5" y="-114.6" font-family="Bitstream Vera Sans" font-size="8.00">provider_type_id</text>
</g>
<!-- synonym_key_registry -->
<g id="node7" class="node"><title>synonym_key_registry</title>
<polygon fill="lightyellow" stroke="none" points="525.5,-21 525.5,-90 655.5,-90 655.5,-21 525.5,-21"/>
<polygon fill="palegoldenrod" stroke="none" points="525.5,-72.5 525.5,-89.5 655.5,-89.5 655.5,-72.5 525.5,-72.5"/>
<text text-anchor="start" x="546" y="-79.1" font-family="Helvetica Bold" font-size="8.00">synonym_key_registry</text>
<text text-anchor="start" x="527.5" y="-64.1" font-family="Bitstream Vera Sans" font-size="8.00">★ id</text>
<text text-anchor="start" x="594.5" y="-64.1" font-family="Bitstream Vera Sans" font-size="8.00">INTEGER</text>
<text text-anchor="start" x="527.5" y="-51.1" font-family="Bitstream Vera Sans" font-size="8.00">⚪ date_create</text>
<text text-anchor="start" x="594.5" y="-51.1" font-family="Bitstream Vera Sans" font-size="8.00">DATETIME</text>
<text text-anchor="start" x="527.5" y="-38.1" font-family="Bitstream Vera Sans" font-size="8.00">⚪ date_update</text>
<text text-anchor="start" x="594.5" y="-38.1" font-family="Bitstream Vera Sans" font-size="8.00">DATETIME</text>
<text text-anchor="start" x="527.5" y="-25.1" font-family="Bitstream Vera Sans" font-size="8.00">⚪ name</text>
<text text-anchor="start" x="594.5" y="-25.1" font-family="Bitstream Vera Sans" font-size="8.00">VARCHAR(100)</text>
</g>
<!-- data_provider&#45;&gt;synonym_key_registry -->
<g id="edge2" class="edge"><title>data_provider&#45;&gt;synonym_key_registry</title>
<path fill="none" stroke="black" d="M550.365,-145.064C556.516,-131.492 562.761,-117.711 568.435,-105.189"/>
<polygon fill="none" stroke="black" points="568.513,-105.017 567.347,-97.9008 573.467,-94.0868 574.633,-101.203 568.513,-105.017"/>
<text text-anchor="middle" x="599.5" y="-114.6" font-family="Bitstream Vera Sans" font-size="8.00">synonym_key_id</text>
</g>
<!-- occurrence -->
<g id="node3" class="node"><title>occurrence</title>
<polygon fill="lightyellow" stroke="none" points="38,-356 38,-503 355,-503 355,-356 38,-356"/>
<polygon fill="palegoldenrod" stroke="none" points="38.5,-485.5 38.5,-502.5 355.5,-502.5 355.5,-485.5 38.5,-485.5"/>
<text text-anchor="start" x="174.5" y="-492.1" font-family="Helvetica Bold" font-size="8.00">occurrence</text>
<text text-anchor="start" x="40.5" y="-477.1" font-family="Bitstream Vera Sans" font-size="8.00">★ id</text>
<text text-anchor="start" x="256.5" y="-477.1" font-family="Bitstream Vera Sans" font-size="8.00">INTEGER</text>
<text text-anchor="start" x="40.5" y="-464.1" font-family="Bitstream Vera Sans" font-size="8.00">☆ provider_id</text>
<text text-anchor="start" x="256.5" y="-464.1" font-family="Bitstream Vera Sans" font-size="8.00">INTEGER</text>
<text text-anchor="start" x="40.5" y="-451.1" font-family="Bitstream Vera Sans" font-size="8.00">☆ taxon_id</text>
<text text-anchor="start" x="256.5" y="-451.1" font-family="Bitstream Vera Sans" font-size="8.00">INTEGER</text>
<text text-anchor="start" x="40.5" y="-438.1" font-family="Bitstream Vera Sans" font-size="8.00">⚪ location</text>
<text text-anchor="start" x="256.5" y="-438.1" font-family="Bitstream Vera Sans" font-size="8.00">geometry(POINT,4326)</text>
<text text-anchor="start" x="40.5" y="-425.1" font-family="Bitstream Vera Sans" font-size="8.00">⚪ properties</text>
<text text-anchor="start" x="256.5" y="-425.1" font-family="Bitstream Vera Sans" font-size="8.00">JSONB</text>
<text text-anchor="start" x="40.5" y="-412.1" font-family="Bitstream Vera Sans" font-size="8.00">⚪ provider_pk</text>
<text text-anchor="start" x="256.5" y="-412.1" font-family="Bitstream Vera Sans" font-size="8.00">INTEGER</text>
<text text-anchor="start" x="40.5" y="-399.1" font-family="Bitstream Vera Sans" font-size="8.00">⚪ provider_taxon_id</text>
<text text-anchor="start" x="256.5" y="-399.1" font-family="Bitstream Vera Sans" font-size="8.00">INTEGER</text>
<polygon fill="palegoldenrod" stroke="none" points="38.5,-381.5 38.5,-394.5 254.5,-394.5 254.5,-381.5 38.5,-381.5"/>
<text text-anchor="start" x="40.5" y="-386.1" font-family="Bitstream Vera Sans" font-size="8.00">» ix_occurrence_niamoto_occurrence_provider_id</text>
<polygon fill="palegoldenrod" stroke="none" points="254.5,-381.5 254.5,-394.5 355.5,-394.5 355.5,-381.5 254.5,-381.5"/>
<text text-anchor="start" x="256.5" y="-386.1" font-family="Bitstream Vera Sans" font-size="8.00">INDEX(provider_id)</text>
<polygon fill="palegoldenrod" stroke="none" points="38.5,-368.5 38.5,-381.5 254.5,-381.5 254.5,-368.5 38.5,-368.5"/>
<text text-anchor="start" x="40.5" y="-373.1" font-family="Bitstream Vera Sans" font-size="8.00">» ix_occurrence_niamoto_occurrence_provider_pk</text>
<polygon fill="palegoldenrod" stroke="none" points="254.5,-368.5 254.5,-381.5 355.5,-381.5 355.5,-368.5 254.5,-368.5"/>
<text text-anchor="start" x="256.5" y="-373.1" font-family="Bitstream Vera Sans" font-size="8.00">INDEX(provider_pk)</text>
<polygon fill="palegoldenrod" stroke="none" points="38.5,-355.5 38.5,-368.5 254.5,-368.5 254.5,-355.5 38.5,-355.5"/>
<text text-anchor="start" x="40.5" y="-360.1" font-family="Bitstream Vera Sans" font-size="8.00">» ix_occurrence_niamoto_occurrence_taxon_id</text>
<polygon fill="palegoldenrod" stroke="none" points="254.5,-355.5 254.5,-368.5 355.5,-368.5 355.5,-355.5 254.5,-355.5"/>
<text text-anchor="start" x="256.5" y="-360.1" font-family="Bitstream Vera Sans" font-size="8.00">INDEX(taxon_id)</text>
</g>
<!-- occurrence&#45;&gt;data_provider -->
<g id="edge3" class="edge"><title>occurrence&#45;&gt;data_provider</title>
<path fill="none" stroke="black" d="M316.191,-351.77C338.907,-337.208 362.773,-321.908 385.782,-307.158"/>
<polygon fill="none" stroke="black" points="385.831,-307.126 388.724,-300.521 395.934,-300.65 393.041,-307.256 385.831,-307.126"/>
<text text-anchor="middle" x="380.5" y="-327.6" font-family="Bitstream Vera Sans" font-size="8.00">provider_id</text>
</g>
<!-- taxon -->
<g id="node8" class="node"><title>taxon</title>
<polygon fill="lightyellow" stroke="none" points="8,-143 8,-303 241,-303 241,-143 8,-143"/>
<polygon fill="palegoldenrod" stroke="none" points="8.5,-286 8.5,-303 241.5,-303 241.5,-286 8.5,-286"/>
<text text-anchor="start" x="113.5" y="-292.6" font-family="Helvetica Bold" font-size="8.00">taxon</text>
<text text-anchor="start" x="10.5" y="-277.6" font-family="Bitstream Vera Sans" font-size="8.00">★ id</text>
<text text-anchor="start" x="168.5" y="-277.6" font-family="Bitstream Vera Sans" font-size="8.00">INTEGER</text>
<text text-anchor="start" x="10.5" y="-264.6" font-family="Bitstream Vera Sans" font-size="8.00">☆ parent_id</text>
<text text-anchor="start" x="168.5" y="-264.6" font-family="Bitstream Vera Sans" font-size="8.00">INTEGER</text>
<text text-anchor="start" x="10.5" y="-251.6" font-family="Bitstream Vera Sans" font-size="8.00">⚪ full_name</text>
<text text-anchor="start" x="168.5" y="-251.6" font-family="Bitstream Vera Sans" font-size="8.00">TEXT</text>
<text text-anchor="start" x="10.5" y="-238.6" font-family="Bitstream Vera Sans" font-size="8.00">⚪ mptt_depth</text>
<text text-anchor="start" x="168.5" y="-238.6" font-family="Bitstream Vera Sans" font-size="8.00">INTEGER</text>
<text text-anchor="start" x="10.5" y="-225.6" font-family="Bitstream Vera Sans" font-size="8.00">⚪ mptt_left</text>
<text text-anchor="start" x="168.5" y="-225.6" font-family="Bitstream Vera Sans" font-size="8.00">INTEGER</text>
<text text-anchor="start" x="10.5" y="-212.6" font-family="Bitstream Vera Sans" font-size="8.00">⚪ mptt_right</text>
<text text-anchor="start" x="168.5" y="-212.6" font-family="Bitstream Vera Sans" font-size="8.00">INTEGER</text>
<text text-anchor="start" x="10.5" y="-199.6" font-family="Bitstream Vera Sans" font-size="8.00">⚪ mptt_tree_id</text>
<text text-anchor="start" x="168.5" y="-199.6" font-family="Bitstream Vera Sans" font-size="8.00">INTEGER</text>
<text text-anchor="start" x="10.5" y="-186.6" font-family="Bitstream Vera Sans" font-size="8.00">⚪ rank</text>
<text text-anchor="start" x="168.5" y="-186.6" font-family="Bitstream Vera Sans" font-size="8.00">VARCHAR(12)</text>
<text text-anchor="start" x="10.5" y="-173.6" font-family="Bitstream Vera Sans" font-size="8.00">⚪ rank_name</text>
<text text-anchor="start" x="168.5" y="-173.6" font-family="Bitstream Vera Sans" font-size="8.00">TEXT</text>
<text text-anchor="start" x="10.5" y="-160.6" font-family="Bitstream Vera Sans" font-size="8.00">⚪ synonyms</text>
<text text-anchor="start" x="168.5" y="-160.6" font-family="Bitstream Vera Sans" font-size="8.00">JSONB</text>
<polygon fill="palegoldenrod" stroke="none" points="8.5,-143 8.5,-156 166.5,-156 166.5,-143 8.5,-143"/>
<text text-anchor="start" x="10.5" y="-147.6" font-family="Bitstream Vera Sans" font-size="8.00">» ix_taxon_niamoto_taxon_parent_id</text>
<polygon fill="palegoldenrod" stroke="none" points="166.5,-143 166.5,-156 241.5,-156 241.5,-143 166.5,-143"/>
<text text-anchor="start" x="168.5" y="-147.6" font-family="Bitstream Vera Sans" font-size="8.00">INDEX(parent_id)</text>
</g>
<!-- occurrence&#45;&gt;taxon -->
<g id="edge4" class="edge"><title>occurrence&#45;&gt;taxon</title>
<path fill="none" stroke="black" d="M169.485,-351.77C165.694,-341.003 161.761,-329.833 157.87,-318.78"/>
<polygon fill="none" stroke="black" points="157.822,-318.644 152.057,-314.313 153.837,-307.325 159.603,-311.657 157.822,-318.644"/>
<text text-anchor="middle" x="181.5" y="-327.6" font-family="Bitstream Vera Sans" font-size="8.00">taxon_id</text>
</g>
<!-- plot -->
<g id="node4" class="node"><title>plot</title>
<polygon fill="lightyellow" stroke="none" points="389.5,-375.5 389.5,-483.5 641.5,-483.5 641.5,-375.5 389.5,-375.5"/>
<polygon fill="palegoldenrod" stroke="none" points="389.5,-466.5 389.5,-483.5 641.5,-483.5 641.5,-466.5 389.5,-466.5"/>
<text text-anchor="start" x="507.5" y="-473.1" font-family="Helvetica Bold" font-size="8.00">plot</text>
<text text-anchor="start" x="391.5" y="-458.1" font-family="Bitstream Vera Sans" font-size="8.00">★ id</text>
<text text-anchor="start" x="542.5" y="-458.1" font-family="Bitstream Vera Sans" font-size="8.00">INTEGER</text>
<text text-anchor="start" x="391.5" y="-445.1" font-family="Bitstream Vera Sans" font-size="8.00">☆ provider_id</text>
<text text-anchor="start" x="542.5" y="-445.1" font-family="Bitstream Vera Sans" font-size="8.00">INTEGER</text>
<text text-anchor="start" x="391.5" y="-432.1" font-family="Bitstream Vera Sans" font-size="8.00">⚪ location</text>
<text text-anchor="start" x="542.5" y="-432.1" font-family="Bitstream Vera Sans" font-size="8.00">geometry(POINT,4326)</text>
<text text-anchor="start" x="391.5" y="-419.1" font-family="Bitstream Vera Sans" font-size="8.00">⚪ name</text>
<text text-anchor="start" x="542.5" y="-419.1" font-family="Bitstream Vera Sans" font-size="8.00">VARCHAR(100)</text>
<text text-anchor="start" x="391.5" y="-406.1" font-family="Bitstream Vera Sans" font-size="8.00">⚪ properties</text>
<text text-anchor="start" x="542.5" y="-406.1" font-family="Bitstream Vera Sans" font-size="8.00">JSONB</text>
<text text-anchor="start" x="391.5" y="-393.1" font-family="Bitstream Vera Sans" font-size="8.00">⚪ provider_pk</text>
<text text-anchor="start" x="542.5" y="-393.1" font-family="Bitstream Vera Sans" font-size="8.00">INTEGER</text>
<polygon fill="palegoldenrod" stroke="none" points="389.5,-375.5 389.5,-388.5 540.5,-388.5 540.5,-375.5 389.5,-375.5"/>
<text text-anchor="start" x="391.5" y="-380.1" font-family="Bitstream Vera Sans" font-size="8.00">» ix_plot_niamoto_plot_provider_id</text>
<polygon fill="palegoldenrod" stroke="none" points="540.5,-375.5 540.5,-388.5 641.5,-388.5 641.5,-375.5 540.5,-375.5"/>
<text text-anchor="start" x="542.5" y="-380.1" font-family="Bitstream Vera Sans" font-size="8.00">INDEX(provider_id)</text>
</g>
<!-- plot&#45;&gt;data_provider -->
<g id="edge5" class="edge"><title>plot&#45;&gt;data_provider</title>
<path fill="none" stroke="black" d="M515.5,-371.263C515.5,-353.161 515.5,-332.706 515.5,-312.928"/>
<polygon fill="none" stroke="black" points="515.5,-312.728 511.5,-306.728 515.5,-300.728 519.5,-306.728 515.5,-312.728"/>
<text text-anchor="middle" x="539.5" y="-327.6" font-family="Bitstream Vera Sans" font-size="8.00">provider_id</text>
</g>
<!-- plot_occurrence -->
<g id="node5" class="node"><title>plot_occurrence</title>
<polygon fill="lightyellow" stroke="none" points="186,-556 186,-690 547,-690 547,-556 186,-556"/>
<polygon fill="palegoldenrod" stroke="none" points="186.5,-673 186.5,-690 547.5,-690 547.5,-673 186.5,-673"/>
<text text-anchor="start" x="334.5" y="-679.6" font-family="Helvetica Bold" font-size="8.00">plot_occurrence</text>
<text text-anchor="start" x="188.5" y="-664.6" font-family="Bitstream Vera Sans" font-size="8.00">★ occurrence_id</text>
<text text-anchor="start" x="454.5" y="-664.6" font-family="Bitstream Vera Sans" font-size="8.00">INTEGER</text>
<text text-anchor="start" x="188.5" y="-651.6" font-family="Bitstream Vera Sans" font-size="8.00">★ plot_id</text>
<text text-anchor="start" x="454.5" y="-651.6" font-family="Bitstream Vera Sans" font-size="8.00">INTEGER</text>
<text text-anchor="start" x="188.5" y="-638.6" font-family="Bitstream Vera Sans" font-size="8.00">☆ provider_id</text>
<text text-anchor="start" x="454.5" y="-638.6" font-family="Bitstream Vera Sans" font-size="8.00">INTEGER</text>
<text text-anchor="start" x="188.5" y="-625.6" font-family="Bitstream Vera Sans" font-size="8.00">☆ provider_occurrence_pk</text>
<text text-anchor="start" x="454.5" y="-625.6" font-family="Bitstream Vera Sans" font-size="8.00">INTEGER</text>
<text text-anchor="start" x="188.5" y="-612.6" font-family="Bitstream Vera Sans" font-size="8.00">☆ provider_plot_pk</text>
<text text-anchor="start" x="454.5" y="-612.6" font-family="Bitstream Vera Sans" font-size="8.00">INTEGER</text>
<text text-anchor="start" x="188.5" y="-599.6" font-family="Bitstream Vera Sans" font-size="8.00">⚪ occurrence_identifier</text>
<text text-anchor="start" x="454.5" y="-599.6" font-family="Bitstream Vera Sans" font-size="8.00">VARCHAR(50)</text>
<polygon fill="palegoldenrod" stroke="none" points="186.5,-582 186.5,-595 452.5,-595 452.5,-582 186.5,-582"/>
<text text-anchor="start" x="188.5" y="-586.6" font-family="Bitstream Vera Sans" font-size="8.00">» ix_plot_occurrence_niamoto_plot_occurrence_occurrence_id</text>
<polygon fill="palegoldenrod" stroke="none" points="452.5,-582 452.5,-595 547.5,-595 547.5,-582 452.5,-582"/>
<text text-anchor="start" x="454.5" y="-586.6" font-family="Bitstream Vera Sans" font-size="8.00">INDEX(occurrence_id)</text>
<polygon fill="palegoldenrod" stroke="none" points="186.5,-569 186.5,-582 452.5,-582 452.5,-569 186.5,-569"/>
<text text-anchor="start" x="188.5" y="-573.6" font-family="Bitstream Vera Sans" font-size="8.00">» ix_plot_occurrence_niamoto_plot_occurrence_plot_id</text>
<polygon fill="palegoldenrod" stroke="none" points="452.5,-569 452.5,-582 547.5,-582 547.5,-569 452.5,-569"/>
<text text-anchor="start" x="454.5" y="-573.6" font-family="Bitstream Vera Sans" font-size="8.00">INDEX(plot_id)</text>
<polygon fill="palegoldenrod" stroke="none" points="186.5,-556 186.5,-569 452.5,-569 452.5,-556 186.5,-556"/>
<text text-anchor="start" x="188.5" y="-560.6" font-family="Bitstream Vera Sans" font-size="8.00">» ix_plot_occurrence_niamoto_plot_occurrence_provider_id</text>
<polygon fill="palegoldenrod" stroke="none" points="452.5,-556 452.5,-569 547.5,-569 547.5,-556 452.5,-556"/>
<text text-anchor="start" x="454.5" y="-560.6" font-family="Bitstream Vera Sans" font-size="8.00">INDEX(provider_id)</text>
</g>
<!-- plot_occurrence&#45;&gt;occurrence -->
<g id="edge7" class="edge"><title>plot_occurrence&#45;&gt;occurrence</title>
<path fill="none" stroke="black" d="M177.72,-562.781C167.721,-554.422 158.805,-544.884 151.5,-534 148.337,-529.287 146.465,-524.316 145.634,-519.204"/>
<polygon fill="none" stroke="black" points="145.633,-519.079 141.549,-513.135 145.465,-507.08 149.548,-513.023 145.633,-519.079"/>
<text text-anchor="middle" x="181.5" y="-527.6" font-family="Bitstream Vera Sans" font-size="8.00">occurrence_id</text>
</g>
<!-- plot_occurrence&#45;&gt;occurrence -->
<g id="edge9" class="edge"><title>plot_occurrence&#45;&gt;occurrence</title>
<path fill="none" stroke="black" d="M250.858,-551.931C244.961,-546.256 239.443,-540.274 234.5,-534 230.638,-529.098 227.143,-523.766 223.985,-518.194"/>
<polygon fill="none" stroke="black" points="223.828,-517.889 217.519,-514.396 218.318,-507.229 224.626,-510.723 223.828,-517.889"/>
<text text-anchor="middle" x="258.5" y="-527.6" font-family="Bitstream Vera Sans" font-size="8.00">provider_id</text>
</g>
<!-- plot_occurrence&#45;&gt;occurrence -->
<g id="edge11" class="edge"><title>plot_occurrence&#45;&gt;occurrence</title>
<path fill="none" stroke="black" d="M306.14,-551.884C298.223,-542.809 290.191,-533.663 282.5,-525 279.923,-522.097 277.296,-519.149 274.638,-516.176"/>
<polygon fill="none" stroke="black" points="274.603,-516.137 267.62,-514.34 266.593,-507.203 273.576,-509 274.603,-516.137"/>
<text text-anchor="middle" x="340.5" y="-527.6" font-family="Bitstream Vera Sans" font-size="8.00">provider_occurrence_pk</text>
</g>
<!-- plot_occurrence&#45;&gt;plot -->
<g id="edge6" class="edge"><title>plot_occurrence&#45;&gt;plot</title>
<path fill="none" stroke="black" d="M410.894,-551.971C417.264,-542.749 423.9,-533.541 430.5,-525 437.735,-515.636 445.669,-506.049 453.691,-496.743"/>
<polygon fill="none" stroke="black" points="453.827,-496.587 454.761,-489.437 461.72,-487.549 460.786,-494.699 453.827,-496.587"/>
<text text-anchor="middle" x="444.5" y="-527.6" font-family="Bitstream Vera Sans" font-size="8.00">plot_id</text>
</g>
<!-- plot_occurrence&#45;&gt;plot -->
<g id="edge8" class="edge"><title>plot_occurrence&#45;&gt;plot</title>
<path fill="none" stroke="black" d="M443.498,-551.94C448.786,-546.059 453.852,-540.045 458.5,-534 466.914,-523.058 474.843,-510.717 481.96,-498.469"/>
<polygon fill="none" stroke="black" points="482.102,-498.218 481.566,-491.027 487.998,-487.767 488.534,-494.958 482.102,-498.218"/>
<text text-anchor="middle" x="488.5" y="-527.6" font-family="Bitstream Vera Sans" font-size="8.00">provider_id</text>
</g>
<!-- plot_occurrence&#45;&gt;plot -->
<g id="edge10" class="edge"><title>plot_occurrence&#45;&gt;plot</title>
<path fill="none" stroke="black" d="M503.919,-551.668C508.654,-546.17 512.899,-540.288 516.5,-534 522.366,-523.758 525.156,-511.958 526.062,-500.074"/>
<polygon fill="none" stroke="black" points="526.071,-499.717 522.224,-493.617 526.375,-487.721 530.222,-493.82 526.071,-499.717"/>
<text text-anchor="middle" x="555.5" y="-527.6" font-family="Bitstream Vera Sans" font-size="8.00">provider_plot_pk</text>
</g>
<!-- raster_registry -->
<g id="node6" class="node"><title>raster_registry</title>
<polygon fill="lightyellow" stroke="none" points="581.5,-588.5 581.5,-657.5 711.5,-657.5 711.5,-588.5 581.5,-588.5"/>
<polygon fill="palegoldenrod" stroke="none" points="581.5,-640 581.5,-657 711.5,-657 711.5,-640 581.5,-640"/>
<text text-anchor="start" x="617.5" y="-646.6" font-family="Helvetica Bold" font-size="8.00">raster_registry</text>
<text text-anchor="start" x="583.5" y="-631.6" font-family="Bitstream Vera Sans" font-size="8.00">★ id</text>
<text text-anchor="start" x="650.5" y="-631.6" font-family="Bitstream Vera Sans" font-size="8.00">INTEGER</text>
<text text-anchor="start" x="583.5" y="-618.6" font-family="Bitstream Vera Sans" font-size="8.00">⚪ date_create</text>
<text text-anchor="start" x="650.5" y="-618.6" font-family="Bitstream Vera Sans" font-size="8.00">DATETIME</text>
<text text-anchor="start" x="583.5" y="-605.6" font-family="Bitstream Vera Sans" font-size="8.00">⚪ date_update</text>
<text text-anchor="start" x="650.5" y="-605.6" font-family="Bitstream Vera Sans" font-size="8.00">DATETIME</text>
<text text-anchor="start" x="583.5" y="-592.6" font-family="Bitstream Vera Sans" font-size="8.00">⚪ name</text>
<text text-anchor="start" x="650.5" y="-592.6" font-family="Bitstream Vera Sans" font-size="8.00">VARCHAR(100)</text>
</g>
<!-- taxon&#45;&gt;taxon -->
<g id="edge12" class="edge"><title>taxon&#45;&gt;taxon</title>
<path fill="none" stroke="black" d="M249.086,-238.652C260.099,-235.36 267,-230.143 267,-223 267,-218.759 264.567,-215.197 260.285,-212.313"/>
<polygon fill="none" stroke="black" points="260.056,-212.212 252.949,-213.436 249.086,-207.348 256.192,-206.123 260.056,-212.212"/>
<text text-anchor="middle" x="287" y="-221.1" font-family="Bitstream Vera Sans" font-size="8.00">parent_id</text>
</g>
<!-- vector_registry -->
<g id="node9" class="node"><title>vector_registry</title>
<polygon fill="lightyellow" stroke="none" points="745.5,-588.5 745.5,-657.5 875.5,-657.5 875.5,-588.5 745.5,-588.5"/>
<polygon fill="palegoldenrod" stroke="none" points="745.5,-640 745.5,-657 875.5,-657 875.5,-640 745.5,-640"/>
<text text-anchor="start" x="780.5" y="-646.6" font-family="Helvetica Bold" font-size="8.00">vector_registry</text>
<text text-anchor="start" x="747.5" y="-631.6" font-family="Bitstream Vera Sans" font-size="8.00">★ id</text>
<text text-anchor="start" x="814.5" y="-631.6" font-family="Bitstream Vera Sans" font-size="8.00">INTEGER</text>
<text text-anchor="start" x="747.5" y="-618.6" font-family="Bitstream Vera Sans" font-size="8.00">⚪ date_create</text>
<text text-anchor="start" x="814.5" y="-618.6" font-family="Bitstream Vera Sans" font-size="8.00">DATETIME</text>
<text text-anchor="start" x="747.5" y="-605.6" font-family="Bitstream Vera Sans" font-size="8.00">⚪ date_update</text>
<text text-anchor="start" x="814.5" y="-605.6" font-family="Bitstream Vera Sans" font-size="8.00">DATETIME</text>
<text text-anchor="start" x="747.5" y="-592.6" font-family="Bitstream Vera Sans" font-size="8.00">⚪ name</text>
<text text-anchor="start" x="814.5" y="-592.6" font-family="Bitstream Vera Sans" font-size="8.00">VARCHAR(100)</text>
</g>
</g>
</svg>
